<?xml version="1.0" encoding="UTF-8"?>
<!DOCTYPE svg PUBLIC "-//W3C//DTD SVG 1.1//EN" "http://www.w3.org/Graphics/SVG/1.1/DTD/svg11.dtd">
<!-- Creator: CorelDRAW -->
<svg xmlns="http://www.w3.org/2000/svg" xml:space="preserve" width="215.9mm" height="279.4mm" version="1.1" style="shape-rendering:geometricPrecision; text-rendering:geometricPrecision; image-rendering:optimizeQuality; fill-rule:evenodd; clip-rule:evenodd"
viewBox="0 0 21590 27940"
 xmlns:xlink="http://www.w3.org/1999/xlink"
 xmlns:xodm="http://www.corel.com/coreldraw/odm/2003">
 <defs>
  <style type="text/css">
   <![CDATA[
    .str0 {stroke:#FFC500;stroke-width:7.62;stroke-miterlimit:2.61313}
    .fil2 {fill:#FFC500}
    .fil3 {fill:#FFC500;fill-rule:nonzero}
    .fil1 {fill:url(#id0)}
    .fil0 {fill:url(#id1);fill-rule:nonzero}
   ]]>
  </style>
  <linearGradient id="id0" gradientUnits="userSpaceOnUse" x1="1884.32" y1="14939.42" x2="5251.98" y2="14939.42">
   <stop offset="0" style="stop-opacity:1; stop-color:#00347E"/>
   <stop offset="0.529412" style="stop-opacity:1; stop-color:#0271C5"/>
   <stop offset="1" style="stop-opacity:1; stop-color:#001B62"/>
  </linearGradient>
  <linearGradient id="id1" gradientUnits="userSpaceOnUse" xlink:href="#id0" x1="6809.74" y1="15873.29" x2="16692.79" y2="15873.29">
  </linearGradient>
 </defs>
 <g id="Layer_x0020_1">
  <metadata id="CorelCorpID_0Corel-Layer"/>
  <path class="fil0" d="M7356.07 16043.61l-47.12 106.89c-23.54,10.27 -47.56,17.69 -72.03,22.2 -24.45,4.53 -50.58,6.81 -78.36,6.81 -97.25,0 -176.67,-26.58 -238.28,-79.73 -67.04,-57.99 -100.58,-137.72 -100.58,-239.19 0,-96.64 30.52,-173.66 91.51,-231.03 61.02,-57.39 139.83,-86.08 236.48,-86.08 27.18,0 54.37,2.13 81.53,6.35 15.71,2.4 42.3,8.16 79.73,17.21l0 105.11c-28.39,-16.91 -56.92,-29.61 -85.61,-38.05 -28.7,-8.47 -58.74,-12.69 -90.14,-12.69 -58.6,0 -108.29,21.28 -149.05,63.87 -40.76,42.58 -61.16,94.39 -61.16,155.38 0,79.73 24.47,144.65 73.4,194.8 44.1,45.3 95.73,67.95 154.92,67.95 35.03,0 70.06,-5.45 105.09,-16.32 27.79,-8.45 61.02,-22.96 99.67,-43.48zm1340.79 119.59l-27.19 1.82c-8.44,1.2 -16.29,2.11 -23.53,2.71 -7.27,0.6 -15.72,0.91 -25.39,0.91 -18.11,0 -33.97,-1.96 -47.55,-5.9 -13.61,-3.93 -26.73,-11.01 -39.42,-21.28 -22.34,-17.52 -48.93,-45.61 -79.73,-84.26 -13.3,-16.92 -36.83,-48.64 -70.66,-95.14 -13.9,-18.71 -27.04,-37.28 -39.42,-55.71 -12.39,-18.43 -24,-37.91 -34.89,-58.45 44.7,-7.84 79.73,-20.54 105.11,-38.05 32.61,-22.94 48.93,-54.35 48.93,-94.22 0,-32.01 -10.87,-56.63 -32.78,-73.83 -21.88,-17.23 -50.43,-25.84 -85.61,-25.84 -18.88,0 -38.22,1.82 -58.3,5.45l0 424 0 19.94c0,12.07 0.91,23.71 2.57,34.89 1.82,11.16 4.99,21.28 9.67,30.35 5.13,13.89 14.94,24.76 29.44,32.61l-173.04 0c7.84,-4.83 14.34,-10.13 19.48,-15.86 5.13,-5.74 9.5,-12.53 13.12,-20.37 4.85,-16.32 7.27,-35.06 7.27,-56.19l0 -25.37 0 -389.57c0,-12.1 -0.76,-23.88 -2.28,-35.35 -1.51,-11.46 -3.91,-21.45 -7.24,-29.89 -3.31,-8.45 -7.1,-14.8 -11.33,-19.03 -4.22,-4.22 -10.55,-8.76 -19.02,-13.58l217.45 0c53.74,0 98.44,12.07 134.07,36.23 39.88,27.19 59.82,64.64 59.82,112.34 0,38.05 -13.46,70.83 -40.34,98.32 -26.87,27.47 -63.55,48.47 -110.08,62.96l96.05 121.41c31.41,39.25 57.68,69.74 78.82,91.51 32,32 63.72,57.08 95.13,75.19l10.87 7.25zm1175.91 -119.59l-41.68 119.59 -382.33 0c7.84,-4.83 14.34,-10.13 19.48,-15.86 5.13,-5.74 9.21,-12.38 12.24,-19.94 3.02,-7.53 5.13,-16.6 6.33,-27.16 1.2,-10.58 1.82,-20.4 1.82,-29.46l0 -414.94c0,-12.1 -0.76,-23.88 -2.28,-35.35 -1.51,-11.46 -3.76,-21.45 -6.79,-29.89 -7.24,-13.89 -17.51,-24.76 -30.8,-32.61l304.42 0c6.05,0 11.78,-0.17 17.21,-0.45 5.44,-0.32 11.18,-1.97 17.22,-4.99l0 106.91c-15.71,-14.49 -32.77,-24.16 -50.89,-28.98 -18.28,-4.85 -40.16,-7.27 -65.55,-7.27 -24.3,0 -41.05,0.45 -50.12,1.36 -9.07,0.92 -22.65,2.88 -40.93,5.91l0 170.32 123.97 0c4.85,0 9.67,-0.16 14.52,-0.45 4.97,-0.31 10.41,-1.97 16.46,-4.99l0 97.84c-5.45,-7.84 -13.46,-14.03 -24.16,-18.57 -10.58,-4.53 -26.9,-6.79 -48.78,-6.79l-82.01 0 0 217.45c38.22,7.25 75.82,10.87 112.65,10.87 36.4,0 69.17,-3.93 98.15,-11.78 29.16,-7.85 56.48,-21.45 81.85,-40.77zm1418.71 119.59l-188.44 0c11.47,-6.65 18.43,-10.87 20.83,-12.7 7.87,-6.02 11.78,-12.52 11.78,-19.77 0,-8.47 -1.51,-17.51 -4.68,-27.18 -5.14,-12.52 -8.61,-21.59 -10.56,-27.02l-53.62 -141.65 -232.09 0 -52.54 141.34c-2.86,6.65 -5.43,14.04 -7.56,22.2 -2.11,8.15 -3.17,15.85 -3.17,23.1 0,9.07 3.17,16.92 9.53,23.56 6.33,6.65 14.63,12.67 24.9,18.12l-168.5 0c22.33,-13.89 40.16,-31.72 53.45,-53.46 6.03,-10.27 16.61,-33.52 31.7,-69.75l161.28 -404.09c2.4,-7.25 4.22,-12.69 5.42,-16.32 3.63,-10.87 5.45,-20.54 5.45,-28.98 0,-7.25 -3.02,-13.89 -9.07,-19.94 -3.62,-3.62 -10.27,-7.85 -19.94,-12.67l144.97 0 195.71 482c12.67,32.01 23.25,54.95 31.7,68.84 13.89,22.36 31.72,40.48 53.45,54.37zm-248.23 -286.29l-92.57 -240.1 -93.79 240.1 186.36 0zm1547.37 170.33l-47.12 115.96 -485.62 0 333.4 -529.1c-23.53,-2.42 -50.43,-4.54 -80.61,-6.36 -30.21,-1.8 -57.71,-2.71 -82.47,-2.71 -44.07,0 -88.17,12.69 -132.27,38.05l45.3 -105.09 406.2 0 -330.1 527.3c31.41,3 63.59,5.57 96.5,7.7 32.92,2.11 62.96,3.17 90.15,3.17 21.74,0 43.33,-1.68 64.78,-4.99 21.45,-3.31 41.53,-8.3 60.25,-14.95 24.76,-10.27 37.74,-15.71 38.96,-16.31 10.27,-6.03 17.8,-10.27 22.65,-12.67zm982.02 115.96l-173.95 0c17.23,-9.07 28.38,-21.14 33.37,-36.23 3.63,-8.47 6.19,-17.69 7.39,-27.64 1.23,-9.98 1.83,-20.69 1.83,-32.18l0 -409.51c0,-13.27 -0.77,-25.68 -2.28,-37.15 -1.49,-11.46 -4.37,-21.45 -8.59,-29.89 -5.45,-13.89 -15.72,-24.76 -30.81,-32.61l173.04 0c-7.53,4.82 -13.75,10.1 -18.57,15.84 -4.99,5.76 -9.22,12.55 -12.69,20.39 -5.74,19.94 -8.59,39.88 -8.59,59.79l0 21.76 0 369.64 0 21.74c0,24.16 3.45,45.3 10.41,63.44 3.48,8.45 7.25,14.78 11.18,19.03 4.08,4.22 10.1,8.75 18.26,13.58zm1496.62 -302.61c0,99.67 -37.45,179.4 -112.33,239.19 -66.44,53.15 -143.15,79.73 -230.15,79.73 -40.45,0 -83.35,-9.07 -128.65,-27.18 -57.36,-22.96 -102.98,-55.57 -136.81,-97.85 -42.87,-53.76 -64.32,-119 -64.32,-195.71 0,-82.13 30.52,-154.01 91.51,-215.63 65.84,-66.43 149.5,-99.66 250.97,-99.66 88.2,0 163.39,26.58 225.61,79.73 69.46,59.19 104.17,138.32 104.17,237.38zm-103.29 7.25c0,-80.33 -25.05,-144.97 -75.19,-193.89 -44.7,-43.47 -97.53,-65.24 -158.55,-65.24 -64.64,0 -118.09,19.94 -160.37,59.79 -47.7,44.7 -71.57,107.52 -71.57,188.47 0,74.28 24.47,136.21 73.39,185.73 45.9,46.5 98.16,69.75 156.73,69.75 72.48,0 129.87,-22.34 172.15,-67.04 42.27,-44.69 63.41,-103.89 63.41,-177.57zm1531.08 -309.85c-19.34,12.67 -32.32,27.33 -38.96,43.93 -6.65,16.61 -9.96,38.2 -9.96,64.79l0 527.29c-25.36,-9.66 -47.41,-22.19 -66.44,-37.76 -18.88,-15.38 -38.36,-35.46 -58.3,-60.39l-322.83 -408.15 0 366.62c0,27.18 3.17,48.77 9.5,64.95 6.36,16 19.48,30.63 39.42,43.93l-163.08 0c19.34,-12.7 32.01,-27.19 38.05,-43.5 6.05,-16.29 9.07,-38.03 9.07,-65.22l0 -387.77c0,-27.79 -2.42,-48.33 -7.27,-61.62 -6.62,-18.11 -19.91,-33.83 -39.85,-47.1l134.1 0c2.4,5.42 6.02,11.61 10.87,18.57 4.82,6.94 8.44,12.24 10.87,15.86l338.85 433.06 0 -358.77c0,-27.79 -2.42,-48.33 -7.27,-61.62 -6.62,-18.11 -19.91,-33.83 -39.85,-47.1l163.08 0zm1257.44 485.62l-41.68 119.59 -382.33 0c7.85,-4.83 14.35,-10.13 19.48,-15.86 5.14,-5.74 9.22,-12.38 12.24,-19.94 3.02,-7.53 5.13,-16.6 6.33,-27.16 1.2,-10.58 1.83,-20.4 1.83,-29.46l0 -414.94c0,-12.1 -0.77,-23.88 -2.28,-35.35 -1.51,-11.46 -3.77,-21.45 -6.79,-29.89 -7.25,-13.89 -17.52,-24.76 -30.81,-32.61l304.43 0c6.04,0 11.78,-0.17 17.2,-0.45 5.45,-0.32 11.18,-1.97 17.23,-4.99l0 106.91c-15.72,-14.49 -32.78,-24.16 -50.89,-28.98 -18.29,-4.85 -40.17,-7.27 -65.55,-7.27 -24.31,0 -41.05,0.45 -50.12,1.36 -9.07,0.92 -22.65,2.88 -40.94,5.91l0 170.32 123.98 0c4.84,0 9.67,-0.16 14.51,-0.45 4.97,-0.31 10.42,-1.97 16.46,-4.99l0 97.84c-5.45,-7.84 -13.46,-14.03 -24.16,-18.57 -10.58,-4.53 -26.9,-6.79 -48.78,-6.79l-82.01 0 0 217.45c38.22,7.25 75.82,10.87 112.65,10.87 36.4,0 69.17,-3.93 98.16,-11.78 29.15,-7.85 56.48,-21.45 81.84,-40.77z"/>
  <path class="fil1" d="M2554.05 13776.69c30.94,-31.74 31.74,-43.92 76.33,-26.79 14.87,5.71 119.99,89.72 136.96,102.38 128.72,96.07 205.81,7.83 334.09,-45.46 271.29,-112.7 245.28,-27.34 298.44,-403.25l337.8 4.96c61.59,367.38 4.51,275.12 315.21,404.35 86.45,35.96 160.47,109.27 268.68,68.45 75.6,-28.51 132.08,-114.52 212.03,-141.53 55.2,28.89 169.62,166.04 227.41,215.81 -15.01,89.79 -112.06,144.15 -141.42,224.04 -40.02,108.89 32.66,188.75 71.68,275.76 42.18,94.07 41.69,186.86 114.97,243.79 65.51,50.88 200.97,49.34 291.83,69.27l-0.72 331.54c-356.97,93.23 -263.46,-39.55 -408.95,316.26 -34.39,84.08 -102.68,159.82 -72,259.33 22.2,71.99 107.98,147.42 144.86,216.28 -21.6,42.29 -184.78,196.61 -226.76,234.58 -76.99,-19.18 -145.45,-121.77 -224.31,-144.63 -98.71,-28.61 -182.83,40.29 -262.88,74.87 -92.44,39.93 -192.64,51.09 -244.4,114.06 -59.92,72.9 -34.4,209.57 -72.05,293.13l-324.22 -3.83c-39.56,-84 -11.95,-224.09 -77.58,-294.83 -53.25,-57.41 -156.9,-73.5 -246.25,-112.18 -83.46,-36.12 -159.42,-102.61 -262.25,-67.04 -86.29,29.85 -144.47,120.31 -220.15,138.33l-225.69 -232.46c37.02,-62.09 126.06,-156.26 145.5,-217.59 30.19,-95.22 -45.19,-192.96 -78.18,-273.29 -129.74,-315.98 -55.48,-232.37 -404.18,-300.94l2.42 -334.07c357.3,-67.94 274.88,7.69 405.87,-310.41 34.26,-83.19 110.63,-172.26 71.4,-275.39 -28.67,-75.36 -128.51,-137.5 -142.19,-225.94l178.7 -177.56zm1371.45 -177.1c-16.87,-39.73 -18.73,-102.64 -25.65,-150.74 -27.6,-191.6 -105.32,-196.04 -308.6,-195.89 -326.92,0.25 -318.8,1.07 -368.49,304.07 -11.68,71.22 -22.1,55.3 -91.59,77.93 -278.72,90.73 -198.41,154.44 -331.85,50.74 -225.54,-175.27 -266.01,-96.8 -422.57,59.67 -180.61,180.52 -221.75,212.4 -54.34,428.42 84.61,109.18 44.89,80.04 -12.95,211.46 -16.32,37.06 -32.76,80.95 -46,122.83 -23.19,73.38 -5.12,73.57 -85.65,84.37 -302.11,40.49 -293.06,70.46 -293.47,378.65 -0.3,223.4 21.21,274.4 206.59,298.33 153.08,19.77 144.85,7.46 171.38,88.27l66.52 168.77c65.91,125.45 47.74,100.14 -26.72,199.07 -163.43,217.13 -61.14,268.15 74.71,403.83 186.61,186.38 203.13,211.55 408.78,68.37 113.81,-79.24 61.49,-88.38 201.93,-17.07 68.9,34.98 174.3,63.62 202.68,78.83 71.2,38.16 22.48,211.11 93.72,299.08 70.8,87.43 501.81,94.19 574.53,-6.39 88.46,-122.36 -24.09,-258.09 130.11,-308.94 319.43,-105.32 216.64,-156.72 369.61,-40.61 216.41,164.26 267.08,59.24 401.08,-74.76 163.36,-163.36 226.77,-201.89 70.13,-407.72 -79.97,-105.08 -83,-72.81 -17.14,-201.3 39.43,-76.93 65.19,-177.28 78.61,-202.86 37.27,-71.06 210.95,-22.25 299.02,-93.83 67.93,-55.21 61.95,-172.99 61.95,-284.76 0,-115.86 6.37,-236.27 -67.61,-290.24 -70.97,-51.77 -196.74,-29.98 -277.74,-66.95 -16.66,-11.89 -21.76,-34.35 -31.25,-63.07 -6.96,-21.02 -13.12,-38.81 -20.09,-58.04 -91.53,-252.68 -132.42,-164.15 -20.99,-310.95 162.45,-214.04 60.83,-269.28 -73.55,-402.56 -165.77,-164.43 -202.59,-227.06 -409.98,-69.96 -106.03,80.32 -69.49,85.18 -200.1,18.06 -75.17,-38.62 -194.81,-65.55 -225.02,-94.11z"/>
  <g id="_2421663042512">
   <path class="fil2 str0" d="M3491.86 15314.99l116.14 -0.04c-1.22,4.1 -47.11,100.75 -56.37,114.06l-2.24 2.73c-7.34,-12.05 -56.13,-108.65 -57.53,-116.75zm55.82 -890.94c3.25,2.82 59.88,111.08 61.12,118.36l-121.45 0.04c12.73,-28.57 29.92,-59.96 44.65,-88.51 4.38,-8.5 10.71,-23.36 15.68,-29.89zm-75.33 118.38l-147.8 0.06c2.82,-7.88 19.73,-29.93 25.42,-38.55 15.97,-24.21 70.36,-99.34 79.64,-115.95l228.97 -0.08c6.31,1.13 79.91,110.81 83.57,115.86 4.82,6.65 8.05,11.68 13.38,19.03 3.91,5.4 10.09,13.74 12.85,19.22l-143.92 0.47c-9.73,-12.16 -29.37,-55.73 -38.07,-72.29l-36.28 -69.61c-1.51,-2.17 -1.44,-1.98 -2.43,-2.98 -7,9.01 -62.76,124.15 -75.33,144.82zm204.4 -154.49l206 -0.03c-3.07,9.4 -16.32,29.13 -21.65,38.59l-66.9 115.63c-14.15,1.33 -20.36,-14.13 -33.31,-33.19l-56.39 -80.1c-8.04,-11.59 -21.55,-28.41 -27.75,-40.9zm-371.15 154.5l-89.33 -154.15 198.17 -0.37c-4.36,9.68 -68.17,99.01 -80.22,117.37 -4.82,7.34 -8.36,11.91 -13.38,19.03 -4.21,5.96 -8.4,15.94 -15.24,18.12zm159.3 -205.05c8.88,-12.61 17.51,-25.95 26.36,-38.48l53.01 -75.94c5.03,3.45 47.43,66.16 54.46,76.21 9.33,13.33 48.57,67.3 53.1,76.66l-212.86 -0.52 25.93 -37.93zm29.63 -312.37c5.79,-0.01 15.74,-1.38 19.84,1.06 17.85,-6.44 26.84,-23.99 35.27,-38.8 5.17,7.59 7.68,14.31 13.42,21.7 5.18,6.66 10.56,12.11 19.56,15.52 4.18,-2.46 12.92,-1.1 18.5,-1.43 -1.37,-1.46 -1.09,-1.21 -3.18,-2.72l-2.21 -1.43c-1.69,-1.05 -2.87,-1.5 -4.42,-2.41 -9.24,-5.42 -15.43,-10.79 -21.58,-19.32 -7.82,-10.82 -14.39,-25.91 -13.18,-42.11 63.74,-2.52 147.79,11.25 207.37,25.34 110.17,26.04 233.97,82.04 320.97,146.51 26.89,19.93 105.13,80.53 124.34,107.27 -28.09,32.16 -69.82,20.87 -104.04,0.35 -68.53,-41.09 -167.44,-153.69 -255.67,-38 -1.62,2.12 -12.65,17.9 -15.04,17.72l-9.44 37.95 -9.32 -3.39 -0.42 -4.42 -3.18 2.76c-29.26,-14.33 -85.24,-30.06 -120.77,-37.19 -95.34,-19.14 -191.04,-19.73 -286.6,0.77 -60.89,13.05 -69.05,20.63 -119.33,36.88 -3.53,-1.79 -3.38,-1.08 -7.45,-8.38 -12.18,-21.87 -6.62,-13.49 -13.69,-29.81 -0.1,4.32 -0.28,2.88 -1.8,5.05 -7.44,-20.5 -47.52,-57.51 -77.93,-65.71 -41.73,-11.26 -80.9,10.96 -107.23,27.94 -36.18,23.33 -93.45,75.86 -137,77.89 -21.31,0.99 -41.62,-9.17 -50.13,-20.41 7.37,-9.95 21.38,-22.6 30.18,-30.19 10.5,-9.05 19.58,-18.58 30.67,-27.33 10.91,-8.61 20.99,-17.34 31.99,-26.02 11.08,-8.75 21.83,-16.54 33.34,-24.67 123.23,-87.13 266.5,-144.98 419.77,-163.95 26.41,-3.27 81.66,-9.76 107.19,-6.65 -0.18,30.37 -15.82,50.57 -40.08,63.7l-7.68 4.97c-0.19,-0.32 -0.72,0.61 -1.04,0.96zm248.5 -104.12l0.09 13.51 -1.81 27.31 -9.48 -1.58 -1.29 -11.58 -1.8 11.03c-29.21,-3.58 -56.43,-9.44 -87.07,-12.45 -63.04,-6.19 -123.04,-6.16 -186.13,0.23l-85.68 11.49c-5.03,4.11 -8.16,4.24 -13.23,2.71 -3.13,2.07 -80.09,21.82 -93.07,26.08 -30.23,9.92 -57.14,20.27 -85.32,32.37 -27.49,11.79 -53.75,24.97 -78.87,38.84l-74.31 44.31c-2.47,0.11 -4.21,-2.41 -6.37,-5.2 -3.33,-4.32 -2.52,-3.66 -7.12,-8.42 -5.05,-5.22 -8.18,-11 -13.68,-16.31 -2.42,-1.33 -7.85,-6.44 -10.55,-8.91 -77.51,-70.83 -133.24,12.95 -169.63,37 -35.51,23.48 -48.57,4.05 -66.77,-8.36l-8.59 7.76c11.25,14.7 20.46,20.22 19.22,46.45 3.29,-4.93 2.82,-7.3 2.94,-8.42 0.24,-2.3 -0.33,-4.48 -0.62,-6.74l7.27 -0.01 1.17 14.59c4.23,-5.7 0.81,-17.49 -0.9,-24.85 35.94,6.51 47.37,-5.07 68.37,-22.18 37.74,-30.74 69.29,-74.05 126.38,-36.24 16.09,10.65 37.8,32.34 47.95,48.03 -5.42,5.64 -12.03,9.15 -18.66,14.21l-88.57 73.53c-5.95,5.74 -10.46,11.02 -15.92,16.47 -5.57,5.56 -9.77,9.82 -15.37,15.35 -18.64,18.4 -45.9,49.01 -60.96,68.7l-54.02 72.34c-8.1,-0.81 -12.63,-4.12 -19.79,-8.03 -8.53,-4.66 -11.89,-3.45 -17.53,-9.51 -0.37,0.1 -41.7,-10.83 -59.4,-9.34 -21.12,1.79 -40.01,14.41 -48.5,24.84 -18.72,23.01 -25.41,41.23 -39.34,68.19 -4.84,9.36 -10.71,16.56 -14.44,24.66 4.09,-1.65 1.62,-2.17 6.82,-1.75 9.04,0.73 3.32,-2.19 4.81,3.73 30.81,-27.35 32.83,-127.23 124.91,-104.45 16.81,4.16 44.28,14.74 54.96,24.04l-44.05 77.6c-12.29,23.31 -30.8,58.92 -38.21,84.08 4.23,-1.61 1.46,-1.91 6.66,-1.6 7.04,0.41 3.06,-1.94 4.27,3.09 3.91,-3.25 31.87,-67.93 40.66,-84.23 15.66,-29.04 30.06,-53.99 46.67,-79.54 20.41,-31.42 55.88,-80.1 80.85,-106.81 8.42,-9.01 22.03,-27.44 30.63,-32.77 14.46,13.17 20.93,32.84 19.04,59.29 5.79,-8.17 2.42,-16.36 1.82,-27.92l9.56 3.02 -3.88 -17.05c25.8,5.22 33.92,9.33 61.47,-0.62 87.11,-31.45 181.11,-179.25 275.46,-52.35 6.26,8.42 24.94,33.82 27.73,44.44l-62.29 32.07c-33.59,18.38 -84.34,53.38 -111.33,78.03 -17.87,16.33 -33.98,29.56 -49.33,46.2 -14.96,16.22 -29.14,31.82 -43.88,49.98 -28.58,35.2 -52.99,73.09 -75.34,114.03 -5.96,10.92 -28.33,60.82 -32.42,63.92l-1.84 0.59c-5.89,0.38 -7.87,-1.26 -14.55,-2.89 -7.63,-1.85 -11.84,-2.7 -18.53,-5.41 -17.69,2.29 -40.81,-8.42 -77.83,1.65 -24.58,6.68 -40.17,19.62 -51.98,35 -23.11,30.09 -34.43,88.08 -40.31,134.46 4.04,-1.71 1.86,-2.13 5.98,-1.8 6.51,0.52 2.55,-1.96 4.67,3.91 1.09,-1.7 0.29,0.61 1.83,-4.05 0.47,-1.43 0.83,-2.87 1.14,-4.34l4.97 -30.77c6.45,-35.29 14.76,-74.33 39.05,-98.85 32.66,-32.97 82.71,-28.88 126.44,-18.41 2.25,0.54 8.29,1.71 9.67,2.14 9.78,3.09 5.68,-0.12 6.78,6.65 -13.67,24.72 -37.96,119.45 -41.02,154.06 -22.36,124.64 -2.27,276.64 41.14,383.87l-2.63 5.04 4.94 0.58 5.07 10.4c4.48,24.38 67.36,136.04 80.37,143.82 0.64,-4.35 6.5,-2.1 11.1,-1.18l-29.97 -46.97c-9.38,-15.04 -18.02,-31.13 -26.9,-48.17 -12.99,-24.95 -38.66,-79.65 -44.05,-108.15l270.82 0.37 -84.25 165.84 225.87 0.34c-1.44,13.69 -23.87,52.93 -29.19,71.12 7.72,0.33 8.45,-1.81 10.11,2.92 8.62,-7.43 20.54,-51.38 29.83,-63.3 0.32,0.29 0.78,0.34 0.92,0.93l11.26 14.6c6.67,8.81 30.28,44.1 36.59,47.64 0.62,-5.05 6,-2.62 11.06,-1.34 -6.08,-14.87 -44.18,-58.35 -50.43,-72.35l152.68 -0.22c5.7,6.44 32.93,63.78 38.88,76.38 1.14,2.42 0.86,1.8 2.29,4.46 7.71,14.38 26.83,56.32 32.19,63.33 4.81,-3.69 7.39,-11.55 10.17,-17.12l45.29 -91.15c5.28,-10.6 12.61,-27.42 18.42,-35.83 20.38,-0.35 151.22,-1.77 159.32,1.03 1.78,8.72 -6.44,15.84 -14.76,27.2 -6.4,8.74 -12.01,16.38 -18.63,25.71 -7.03,9.92 -33.21,43.69 -36.59,51.23 5.79,-0.02 7.88,-1.3 11.76,1.56 11.16,-8.27 55.88,-79.42 65.57,-86.47 2.46,3.19 3.36,6.17 4.9,9.77l3.4 7.05c1.5,2.27 1.02,1.7 2.6,3.23 4.44,-2.36 5.83,-1.36 10.89,-0.23 -7.47,-26.85 -18.74,-27.89 -7.53,-40.04l217.26 -0.11c-5.28,-17.93 -75.64,-142.73 -84.08,-165.75l270.97 -0.47c-3.94,-8.39 -11.15,-16.73 -16.64,-24.77 -16.63,-24.33 -117.96,-165.57 -120.98,-174.89 12.77,-20.68 93.64,-125.93 97.7,-135.79 4.95,-3.74 10.16,-12.56 13.94,-17.76 4.96,-6.82 8.5,-11.5 13.11,-17.59 5.58,-7.38 20.7,-30.67 26.1,-34.81 7.52,13.05 6.42,48.88 14.42,58.71l0.3 -9.05 8.98 1.02c-1.8,-22.65 -17.48,-84.05 -25.59,-102.9 -1.73,-7.53 -4.42,-14.32 -6.84,-21.33 -1.25,-3.62 -2.26,-6.18 -3.77,-10.03 -2.95,-7.54 -3.32,-5.79 -0.57,-10.23 -5.61,-1.68 -3.42,1.82 -6.44,-5.22 -2.3,-5.39 -0.79,-4.92 0.12,-7.48 -5.72,-2.9 -12.25,-23.63 -15.35,-29.76 -5.53,-10.98 -10.09,-20.85 -16.03,-31.8 -28.65,-52.81 -75.33,-122.46 -120.02,-164.93 -42.04,-39.96 -51.17,-51.26 -101.67,-87.7 -48.08,-34.7 -115.57,-65.16 -121.5,-69.43 7.66,-22.5 41.64,-64.96 63.53,-79.65 70.16,-47.08 137.37,27.16 192.73,62.1 13.56,8.56 28.99,19.39 46.38,25.3 27.74,9.43 35.41,7.01 62.33,0.51l-4.69 20.73 12.05 -2.99c5.62,-13.7 9,-24.85 18.22,-34.51 8.24,3.82 22.49,22.25 28.82,29.12 9.31,10.09 17.75,20.83 27.22,32.54 42.33,52.3 86.15,120.01 115.76,182.74 4.09,8.66 14.24,35.28 19.93,40.27 0.61,-5.68 -1.96,-2.15 3.15,-3.17 5.48,-1.1 3.94,-0.02 7.74,1.68 -4.63,-18.06 -26.27,-59.38 -35.11,-75.33 -6.71,-12.12 -12.69,-23.35 -19.73,-34.87 -4.02,-6.57 -18.53,-28.84 -19.66,-34.64 -4.93,-3.17 -5.87,-4.66 -7.24,-11.25 -4.21,-2.31 -22.4,-30.21 -27.16,-36.55 -35.96,-47.93 -49.78,-63.81 -88.88,-105.65 -10.97,-11.75 -21.38,-20.81 -33.05,-31.8 -28.7,-27.03 -56.58,-50.52 -88.39,-73.66 -5.1,-3.71 -14.35,-8.89 -16.59,-14.33 -6.01,-0.8 -7.67,-2.69 -10.66,-6.57 -8.75,-2.92 -110.4,-74.43 -238.98,-115.61 -26.09,-8.35 -64.25,-20.36 -92.38,-24.19 2.93,-19.93 18.83,-52.82 27.49,-65.82 36.71,-55.09 84.11,-28.66 131.47,-14.17 50.96,15.59 57.53,-3.19 69.62,-6.63 0.99,12.97 5.85,28.36 17.34,34.98l0.68 -2.85 11.32 0.79c-4.71,-10.5 -13.2,-10.27 -16.42,-26.91 -2.74,-14.13 2.41,-25.98 5.1,-37.87l-10.1 -3.76c-9.63,12.99 -15.46,41.59 -55.14,35.28 -24.72,-3.93 -46.55,-15.45 -70.99,-20.97 -63.16,-14.27 -90.26,23.62 -110.3,65.64zm-834.12 722.43c5.5,-4.85 17.4,-35.63 21.96,-44.99 21.07,-43.24 48.8,-86.39 76.95,-122.71 37.07,-47.83 54.03,-62.38 97.17,-102.35 10.49,-9.72 24.27,-19.46 37,-29.53 103.14,-81.57 257.52,-134.57 396.27,-136.17 -3.15,8.46 -9.92,15.98 -14.67,23.01 -11.29,16.71 -97.75,144.25 -102.16,145.24l-225.74 0.01c6.55,17.85 91.45,153.24 94.17,166.63l-197.15 0.66c3.64,9.98 42.73,89.26 47.41,94.04 1.89,7.79 26.41,54.95 33.21,68.63 4.5,9.04 11.37,17.93 7.7,21.46 -8.67,3.95 -265.69,1.41 -299.02,1.41 0.34,-10.26 8.91,-33.57 12.35,-43.82 3.67,-10.98 13.67,-33.07 14.55,-41.52zm241.78 -9.78l-38.59 -78.45 186.32 -0.34c-1.6,5.98 -11.83,19.61 -15.72,25.26 -5.21,7.58 -13.59,17.48 -17.53,25.93l-55.48 80.15c-5.51,7.79 -12.77,20.27 -18.58,25.8 -6.29,-5.54 -33.82,-65.49 -40.42,-78.35zm125.15 -23.95c8.04,-5.43 20.96,-30.07 29.58,-40.13 6.25,5.08 17.29,32.02 25.61,40.84l33.56 59.5c24.59,42.39 26.21,36.76 12.65,58.87l-178.9 -0.24c-0.45,-12.69 71.84,-101.95 77.5,-118.84zm65.62 -2.91c-4.04,-13.3 -26.57,-41.1 -27.07,-51.37l151.31 -0.57 -15.69 33.12 -55.88 107.04c-1.05,-0.94 -1.08,-0.9 -2.5,-2.67l-50.17 -85.55zm118.9 -15.43c2.26,-2.04 0.63,0.16 3.5,-4.11 0.22,-0.33 2.26,-4.11 2.45,-4.47 1.54,-2.98 2.9,-5.63 4.56,-9.06 3.1,-6.38 5.59,-11.56 9.03,-18.37l136.02 -0.49c12.4,19.98 34.14,71.91 42.97,80.55 2.61,9.77 17.29,35.3 23.06,46.41 16.12,31 18.65,25.92 5.21,46.92l-62.61 0.03c-12.37,-26.44 -26.14,-55.74 -38.43,-82.52l-38.44 -82.11c-5.39,5.66 -32.84,69.23 -39.36,82.83 -6.95,14.47 -12.93,27.95 -19.49,41.95 -23.37,49.81 -5.99,39.86 -76.17,39.84 -1.23,-1.81 -9.12,-14.36 -9.95,-16.55 -2.2,-5.78 2.29,-11.09 5.36,-16.96 6.3,-12.07 11.86,-22.84 17.99,-34.89 5.97,-11.74 32.65,-60.69 34.3,-69zm210.21 43.07l-40.22 -79.23 148.03 -0.34c5.31,9.75 4.28,8.44 -2.09,18.96 -3.81,6.31 -7.68,13.19 -11.25,19.48 -7.01,12.34 -18.45,28.96 -22.99,41.23l-37.41 62.67c-7.31,-7.49 -26.31,-51.93 -34.07,-62.77zm83.42 1.21c11.43,-10.75 25.4,-49.64 37.51,-61.33 4.81,6.82 19.91,30.5 26.18,35.51 3.66,11.22 75.91,106.02 81.08,118.94l-178.84 0.01c-11.1,-19.03 -11.36,-13.7 8.5,-47.55 6.74,-11.48 21.49,-34.43 25.57,-45.58zm74.36 -29.48l-24.58 -35.94c-3.47,-4.52 -6.65,-7.26 -3.35,-13.47 5.56,-3.46 170.53,-3.74 186.68,-1.3l-32.35 66.19c-7.77,15 -41.35,87.64 -48.44,94.87 -13.67,-17.33 -26.6,-36.99 -39.51,-55.8 -12.39,-18.04 -26,-38.09 -38.45,-54.55zm136.97 18.98c5.1,-4.68 39.46,-75.53 41.54,-82.5l-197.42 -0.06 94.69 -166.15 -237.44 -0.51 -116.35 -167.96c67.58,-5.76 183.21,21.38 239.24,43.72 107.14,42.7 147.24,73.81 219.79,135.11 58.89,49.75 120.13,133.67 154.93,203.33 7.85,15.73 16.16,31.33 22.85,48.82 4.09,10.7 15.79,44.25 20.38,51.75l10.31 38.08 -301.87 -0.01c1.93,-9.9 19.08,-40.95 24.61,-52.05 5.2,-10.45 23.09,-43.24 24.74,-51.57zm-470.53 245.54c-12.9,-19.64 -24.67,-42.13 -36.43,-62.52 -3.31,-5.73 -7.11,-8.52 -4.3,-15.6 5.77,-14.55 17.66,-35.58 23.64,-51.55l136.52 -0.19c7.08,3.87 13.38,24.37 17.28,32.34 19.18,39.17 13.7,26.08 -21.87,89.57 -0.9,1.61 -1.65,3.01 -2.56,4.27l-3.09 3.57c-7.82,-11.96 -47.03,-110.66 -51.51,-117.42 -2.81,-4.23 -0.88,-1.82 -3.98,-4.48 -7,19.14 -17.29,41.14 -26,61.03 -4.58,10.47 -8.87,20.54 -13.44,30.96 -2.47,5.62 -4.23,9.7 -6.76,15.45 -1,2.26 -1.92,4.71 -3.03,7.18 -0.49,1.07 -1.06,2.38 -1.67,3.45l-2.8 3.94zm136.09 -129.86l48.94 0.44 -27.88 46.9 -21.06 -47.34zm-186.94 42.41c-5.46,-10.39 -19.89,-30.71 -23.39,-42.42l43.29 0.15c-1.82,6.48 -16.59,38.87 -19.9,42.27zm40.68 -54.46c0.86,-6.3 47.56,-106.53 58.27,-128.9l5.29 -7.46c7.07,13.73 60.35,128.41 62.03,136.34l-125.59 0.02zm-623.4 87.41c1.39,-1.94 0.34,0.69 1.86,-3.87l3.14 -17.47c1.34,-7.64 2.5,-14.03 3.99,-21.32 2.9,-14.12 7.15,-28.77 9.67,-41.98l5.4 4.85c0.02,0.02 2.88,4.08 3.54,4.98l53.47 71.92c3.23,7.16 16.65,24.14 22.1,31.63l69.09 95.7 -34.93 51.39c-14.33,20.47 -97.26,143.15 -107.71,155.35 -12.44,-16.88 -29.85,-124.3 -32.67,-153.85 -4.18,-43.72 -4.52,-89.65 -0.67,-133.67 1.11,-12.57 5.35,-32.81 3.72,-43.66zm92.93 -4.38c-5,-12.74 -43.78,-57.45 -49.62,-70.9l266.25 -0.08c-2.85,6.99 -31.31,46.88 -37.26,55.19 -6.48,9.07 -35.74,50.31 -38.24,57.16 -3.52,2.18 -33.15,46.8 -39.54,56.15l-14.76 19.33c-8.11,-8.06 -78.84,-109.52 -86.83,-116.85zm153.74 42.77c17.65,-18.45 70.43,-109.81 81.52,-113.67 7.59,7.05 23.08,44.23 29.09,56.28 5.94,11.92 21.21,49.73 29.86,55.95 1.18,14.28 31.21,56.43 30.6,66.75 -0.22,3.81 -28.77,56.84 -33.05,65.3l-68.45 130.93c-11.26,-13.66 -22.01,-29.34 -31.79,-43.05l-96 -132.44c3.57,-8.33 50.27,-72.82 58.22,-86.05zm151.88 -2.11l-55.2 -111.11 165.87 -0.53c-3.29,11.25 -21.66,44.35 -27.93,56.08 -8.33,15.57 -23.37,41.41 -28.12,56.7l-27.18 51.03 -27.44 -52.17zm66.33 1.99c0.73,-0.93 1.25,-1.56 2.33,-3.33 12,-19.73 52.06,-108.66 58.88,-110.3l18.5 0.13c4.54,9.4 9.77,17.76 14.74,26.51 4.64,8.19 11.96,18.26 15.1,26.12 3.44,8.59 -5.77,21.72 -9.18,29.3 -4.56,10.15 -10.41,19.89 -13.3,30.72 -3.95,4.48 -71.46,150.49 -71.65,156.2l93.58 0.84c-1.84,8.88 -40.17,97.11 -44.38,102.32 -4.56,-5.18 -96.52,-191.07 -96.3,-194.2 0.52,-7.59 27.84,-51.03 31.68,-64.31zm98.55 -0.38c2.05,-2.24 0.88,-0.39 3.14,-4.37 1.03,-1.82 1.8,-3.92 2.68,-5.92l14.85 -31.07c4.61,3.89 18.37,29.61 21.29,34.91 5.05,9.13 14.99,29.73 21.33,35.39 1.04,6.07 0.01,2.29 -4.99,3.33l-65.3 1.15c6.61,16.3 20.99,37.7 30.11,54.1 7.34,13.18 12.5,13.59 5.42,29.06 -16.72,36.53 3.77,28.16 -93.09,27.3 1.88,-14.37 61.58,-127.22 64.56,-143.88zm80.79 24.62l43.67 -99.42c4.15,4.2 18.87,40.74 22.77,50.05 5.1,12.13 17.04,44.32 23.5,52.15 -1.22,4.09 0.49,1.84 -3.34,3.21l-88.47 1.25 1.87 -7.24zm107.05 2.66c6.47,-5.63 14.87,-23.59 19.59,-32.11 3.85,-6.95 15,-28.02 19.15,-32.38 8.7,13.19 19.66,48.51 28.02,57.44l57.52 126.48c-92.41,-0.48 -74.17,7.71 -89.59,-28.29 -9.74,-22.76 -12.53,-13.69 13.06,-59.21 4.24,-7.54 12.93,-21.71 15.4,-29.46l-58.05 0.52c-6.76,-1.08 -3.41,2.48 -5.1,-2.99zm77.48 -10.93l-30.25 -66.76c-0.48,-5.45 29.82,-53.4 34.14,-62.84 25.37,0 16.09,-3.54 36.68,35.67l20.46 36.9c0.8,5.87 32,64.8 37.22,74.4 4,7.37 18.09,29.48 15.1,37.07l-95.81 188.61 -42.84 -100.64 90.38 0.37 -65.08 -142.78zm72.16 -57.77c-3.11,-11.67 -11.68,-24.77 -17.76,-36.27 -5.08,-9.6 -14.64,-26.05 -17.5,-35.45l167.48 -0.11 -41.66 86.12c-13.96,22.39 -25.25,57.89 -40.57,78.97l-49.99 -93.26zm100.86 17.69c8.67,-7.71 38.62,-81.6 46.38,-87.53l38.07 53.94c3.97,5.97 8.49,13.47 13.99,17.51 1.05,4.48 1.57,4.26 4.47,8.4 25.89,36.89 67.37,94.12 88.2,126.49 -3.34,9.05 -23.83,34.09 -30.82,43.95 -11.1,15.66 -21.56,29.18 -32.35,44.42 -11.11,15.69 -21.54,29.3 -32.34,44.43 -5.84,8.18 -10.26,13.94 -15.82,21.74 -4.87,6.82 -12.4,15.71 -16.26,22.81 -8.1,-8.18 -31.03,-57.72 -38.65,-72.23 -13.24,-25.24 -25.46,-49.51 -38.46,-74.19 -6.62,-12.56 -12.2,-24.13 -19.08,-37.19 -10.95,-20.78 -14.01,-16.59 -3.66,-37.22 6.39,-12.74 35.33,-67.21 36.33,-75.33zm109.25 -17.69c-6.05,-15.17 -42.82,-58.3 -47.94,-71.81l281.94 -0.01c-5.56,13.58 -43.63,56.25 -49.55,71.1l-93.53 126.7c-6.11,-5.09 -17.84,-23.15 -23.35,-31.21 -7.19,-10.53 -63.39,-92.08 -67.57,-94.77zm-49.22 339.31c0.32,0.26 0.79,0.29 0.91,0.85 0.13,0.56 0.73,0.68 0.89,0.88 0.16,0.2 0.63,0.68 0.82,0.93l17.5 33.72c6.58,12.8 13.48,25.15 19.97,38.05 6.29,12.5 12.27,24.22 19.06,37.21 6.01,11.47 15.55,27.68 19.43,39.07 -44.21,1.56 -141.4,0.92 -187.87,0.08 3.25,-7.6 8.58,-12.91 13.37,-19.6l95.92 -131.19zm-214.97 -3.14c4.78,2.79 7.12,11.91 9.58,17.61l41.77 96.46c4.77,11.01 13.47,28.48 16.53,39.59l-146.61 0.4 38.46 -78.39c5.49,-10.98 32.94,-72.61 40.27,-75.67zm-315.62 0.02c7.14,4.98 14.89,26.65 19.78,36.41 6.56,13.11 12.82,25.72 19.33,38.69l38.54 78.91 -146.54 0.03 49.8 -116.9c2.84,-6.49 5.38,-12.32 8.27,-19.05 4.38,-10.21 4.87,-15.61 10.82,-18.09zm-213.26 -0.02l7.08 0.07 55.04 75.96c8.55,12.04 52.35,69.75 55.76,77.8l-199.21 -0.19 39.39 -77.93c6.98,-13.5 12.84,-25.7 19.52,-38.49 3.27,-6.25 16.47,-37.28 22.42,-37.22zm433.34 154.06l-128.81 0c-6.71,-21.61 -70.34,-134.59 -74.87,-154.05l282.18 0c-2.53,9.41 -14.13,29.89 -18.79,39.19l-52.7 105.93c-2.56,5.29 -2.08,6.35 -7.01,8.93zm111.51 -153.69l184.87 -0.36 -109.44 151.26c-3.56,3.24 2.39,1.64 -4.69,2.55 -8.54,1.1 -3.86,-0.01 -5.97,-2.36 -0.66,-0.74 -8.15,-19 -9.31,-21.63l-37.08 -85.77c-5.67,-12.86 -14.48,-30.93 -18.38,-43.69zm-522.1 0.04c28.93,-1.9 137.46,-0.69 173.52,-0.34 -2.04,9.01 -62.01,146.1 -64.9,149.34 -8.79,-8.87 -107.31,-146.16 -108.62,-149zm861.17 -187.93l60.83 87.23c10.73,15.16 20.39,28.37 31.05,44.02 5.19,7.63 10.01,14.86 15.35,22.16 4.57,6.27 11.09,14.95 14.67,21.43l-250.25 0.61c3.57,-7.76 9.88,-14.81 15.29,-22.4l48.14 -66.17c11.18,-15.35 20.88,-28.98 31.77,-43.29 7.72,-10.14 25.4,-37.73 33.15,-43.59zm-250.97 -25.27c6.63,7 20.24,37.77 25.95,48.59l77.84 151.95c-57.9,2.27 -124.25,-0.71 -184.02,0.24 -12.54,0.2 -20.51,1.01 -13.86,-13.71 3.12,-6.93 7.29,-14.66 10.85,-21.77 10.71,-21.38 76.96,-157.76 83.24,-165.3zm-363.22 74.86l38.36 0.24 60.03 105.41 58.36 -104.33 45.59 0.21 46.93 108.78c3.76,8.78 2.44,8.25 -0.13,15.55l-294.89 -0.52c-11.48,-4.68 6.6,-34.41 9.84,-41.98 11.74,-27.44 23.95,-55.64 35.91,-83.36zm-534.31 125.74c4.69,-10.69 81.07,-118.3 94.78,-138.92 5.35,-8.04 27.59,-42.36 34.1,-45.83 3.13,7.69 22.25,32.63 28.73,41.13 10.2,13.39 20.45,27.58 30.31,41.3 19.51,27.14 39.54,55.02 59.71,81.93 19.17,25.58 5.56,20.51 -32.53,20.51 -69.72,0 -147.12,1.44 -215.1,-0.12zm372.06 -201.68c7.23,8 62.52,123.87 75.67,150.06 9.17,18.25 23.71,39.51 19.31,51.33l-189.98 0.39c-7.73,-11.05 -4.02,-11.23 2.67,-23.99 4.55,-8.67 8.65,-16.75 13.4,-25.85l78.93 -151.94zm215.09 76.82l89.62 0.13c-3.53,10.76 -24.03,45.18 -31.94,59.9l-7.79 14.36c-2.49,3.89 1.06,-1.29 -1.43,2.12 -1.37,1.88 -1.51,1.99 -2.52,3.04l-45.94 -79.55zm129.54 -43.76l14.42 31.85 -31.88 0.29c1.93,-7.68 12.98,-27.92 17.46,-32.14zm-165.49 6.47l14.24 24.05 -25 0.15c1.36,-5.72 2.53,-7.64 4.81,-12.85l3.06 -7.17c0.18,-0.35 0.43,-0.8 0.62,-1.12 2.54,-4.28 0.73,-1.36 2.27,-3.06zm132.82 25.38c-20.31,0 -40.88,-0.05 -61.16,-0.41 -54.55,-0.94 -37.05,7.92 -61.09,-31.88 -5.96,-9.87 -3.64,-11.87 0.87,-22.31 6.21,-14.39 13.88,-30.37 18.99,-44.23 8.22,7.08 42.8,75.54 53.17,88.87l7.03 -9.84c8.68,-15.41 40.21,-72 45.86,-78.53 3.63,4.12 22.21,45.27 21.83,50.85 -0.28,4.09 -21.92,41.83 -25.5,47.48zm-133.97 -55.88c-4.43,-3.56 -25.47,-39.78 -25.19,-44.84l44.38 -0.7 -19.19 45.54zm84.61 22.02c-6.35,-10.65 -35.6,-59.51 -38.26,-68.08l78.46 -1.17c-3.05,7.8 -35.67,65.35 -40.2,69.25zm84.04 -28.79c-4.47,-4.47 -16.65,-32.53 -17.82,-40.8l39.8 -0.62 -21.98 41.42z"/>
   <path class="fil2 str0" d="M3440.31 15476.24l230.21 -0.14 -86.01 118.85c-9.09,12.65 -19.12,26.99 -29.27,39.15l-114.93 -157.86zm-459.73 -123.39c4.15,18.21 88.21,106.09 107.89,121.95 6.38,5.15 11.65,10.13 18.27,15.83 42.6,36.69 102.6,74.73 164.45,101.83 4.31,2.66 8.38,2.99 13.67,6.61 18.47,5.01 39.41,14.68 59.33,20.91 110.96,34.66 188.92,27.12 209.16,32.81 0.26,0.08 0.72,0.31 0.95,0.36 6.22,1.43 -0.66,-0.7 8.79,-1.95l58.82 -3.71c63.87,-6.57 135.21,-23.89 191.83,-48.68 0.39,-0.17 1.01,-0.79 1.2,-0.43 0.24,0.48 1.64,-0.59 2.36,-0.84l10.48 -5.21c41.89,-11.55 130.03,-73.3 164.52,-101.42 43.34,-35.31 80.51,-75.06 114.39,-119.32 4.9,-6.4 11.55,-12.97 13.27,-20.08l-11.71 -1.2c-4.8,4.69 -16.15,20.52 -22,28.09 -22.99,29.73 -47.83,55.38 -75.2,80.11 -74.81,67.59 -160.62,119.79 -263.44,150.96 -39.4,11.95 -136.41,33.85 -179.01,28.69 5.83,-10.71 20.7,-29.53 28.96,-40.41l73.29 -100.79c4.66,-6.64 11.63,-14.52 14.6,-21.02l178.25 -0.11 -51.97 -120.75c-5.06,-1.13 -6.45,-2.13 -10.89,0.23 0.38,13.86 39.19,86.38 44.83,108.61l-149.56 -0.02c2.68,-6.77 9.68,-14.74 14.27,-21.17 4.04,-5.65 12.64,-15.74 13.99,-21 -3.88,-2.86 -5.97,-1.58 -11.76,-1.56l-32.33 43.76 -249.76 -0.26c-4.83,-5.89 -52.1,-74.23 -56.74,-76.17 -5.06,-1.28 -10.44,-3.71 -11.06,1.34 1.87,9.98 46.87,60.93 51.96,75.1l-160.53 0c3.29,-18.78 29.18,-60.17 29.97,-74.97 -1.66,-4.73 -2.39,-2.59 -10.11,-2.92l-38.82 89.4 190.18 0.39c3.03,6.43 9.98,14.57 13.87,20.19l102.98 142.51c-46.78,4.91 -140.22,-14.21 -182.96,-26.78 -113.51,-33.36 -213.57,-94.15 -294.86,-176.03l-50.05 -55.73c-2.75,-3.4 -19.47,-27.3 -22.67,-28.33 -4.6,-0.92 -10.46,-3.17 -11.1,1.18z"/>
   <path class="fil2 str0" d="M4221.57 15602.38c-1.2,9.57 2.06,12.48 -12.52,12.17 -8.79,5.57 -20.38,20.42 -30.09,28.89 -60.21,52.53 -95.54,80.92 -166.8,123.25 -27.26,16.18 -48.08,26.43 -76.28,39.7 -102.96,48.49 -264,90.96 -380.19,85.1l3.1 -23.54 -0.87 -4.99c-6.75,0 -14.1,-1.62 -18.1,2.19l3.58 26.68c-210.76,-2.23 -422.34,-78.68 -578.41,-209.97 -5.53,-4.65 -23.88,-21.16 -27.73,-22.82 -2.89,-0.31 -5.93,-0.98 -8.85,-0.44 -6.89,1.28 -2.36,-2.49 -5.55,2.81 3.72,4.64 15.81,14.14 21.5,18.92 7.96,6.69 14.75,12.21 22.47,18.45 13.17,10.65 32.32,26.47 46.95,35.03l13.97 10.02c79.48,51.33 144.17,85.56 237.3,115.62 25.49,8.23 81.95,21.5 92.15,25.24 -3.54,19.07 -18.43,50.8 -27.69,64.31 -59.79,87.25 -140.01,-27.94 -200.82,21.76l-2.03 -9.53c-7.37,-0.49 -8.45,-2.48 -10.04,3.05 -3.52,20.26 2.84,4.23 -6.79,37.03l11.57 4.91c2.95,-11.75 10.86,-21.95 17.47,-27.79 26.14,-23.11 72.02,4.71 107.05,12.86 53.39,12.43 90.61,-14.91 109.24,-65.47l2.42 -41.36 13.74 2.99c13.02,0.82 29.78,4.9 43.34,6.83 111.84,15.91 199.66,12.06 311.92,-7.03l15.99 -3.28c99.46,-21.39 171.59,-50.5 256.86,-95.89 23.33,-12.41 60.94,-38.25 72.35,-43.85l3.08 -1.72c10.7,10.8 17.56,20.55 27.47,30.81 11.8,9.13 13.62,14.06 30.33,23.86 44.88,26.33 85.77,7.43 116.5,-25.08 -3.77,-4.35 1.17,-1.94 -7.07,-2.94 -1.37,-0.17 -5.95,0.29 -7.54,0.37 -11.32,7.5 -20.61,17.66 -36.91,23.95 -16.32,6.3 -31.82,5.82 -48.11,-1.24 -21.67,-9.39 -54.93,-39.03 -64.29,-56.69 2.09,-2.44 70.76,-54.3 85.92,-69.18 12.32,-12.1 64.98,-60.71 73.92,-72.83 2.4,-3.24 1.76,-2.09 2.83,-4.93 -0.74,-4.38 0.76,-2.21 -4.18,-2.99 -1.54,-0.24 -5.33,0.24 -7.09,0.36l-15.07 16.4z"/>
   <path class="fil2 str0" d="M2609.25 14769.9c-18.32,113.92 -14.03,222.57 4.54,336.11 -3.19,2.94 4.76,1.63 -5.34,2.67l0 2.44 5.95 -1.93 2.34 12.7c8.77,32.62 14.04,62.63 23.82,94.49 29.61,96.44 61.02,159.68 112.19,244.47 1.48,2.84 2.21,3.98 4.47,7.25 2.74,3.95 2.23,2.46 4.17,6.8 5.71,5.61 12.03,17.26 17.42,24.63 29.64,40.51 63.32,84.43 99.04,119.35 18.96,18.53 23.07,23.72 45.01,42.53 3.19,-5.3 -1.34,-1.53 5.55,-2.81 2.92,-0.54 5.96,0.13 8.85,0.44 -3.41,-5.12 -5.33,-5.13 -11.3,-11.51 -9.57,-10.21 -29.09,-23.33 -35.74,-34.82 3.11,-5.25 9.4,-8.83 15.5,-12.41 23.78,-13.97 46.86,-8.57 69.51,1.4 25.56,11.25 49.9,31.79 70.56,45.89 2.53,-4.53 -2.87,-2.06 7.05,-3.11 2.41,-0.25 6.54,0.48 9.01,0.76 -8.57,-9.54 -52.85,-38.97 -66.35,-46.78 -12.4,-7.17 -24.76,-13.03 -39.86,-16.5 -23.43,-5.38 -29.19,-0.36 -48.86,3.19 13.07,-34.1 1.77,-62.72 -12.32,-90.37 -6.15,-12.08 -36.19,-58.87 -44.5,-67.59 -4.15,-1.27 -1.8,-1.8 -6.8,-1.17 -7.28,0.92 -2.6,-2.64 -5.4,3.06 2.96,6.1 8.66,13.76 12.57,19.43 4.42,6.41 8.85,12.52 13.25,19.12 25.59,38.31 57.79,97.14 17.03,134.84 -7.42,-4.79 -21.5,-23.06 -28.92,-30.79 -62.03,-64.68 -122.5,-170.59 -160.09,-252.77 -50.09,-109.53 -81.26,-252.91 -82.17,-388.88 51.3,-0.96 68.96,46.75 78.31,92.35 4.82,23.52 8.1,48.94 12.67,72.39 2.77,14.19 9.72,44.68 16,57.6l4.6 6.39c0.69,-5.86 -1.95,-1.61 3.02,-3.45 2.09,-0.77 5.05,-0.24 7.22,-0.14 -21.79,-56.58 -19.55,-73.02 -30.6,-130.15 -4.15,-21.46 -9.8,-43.91 -18.94,-61.32 -4.66,-8.88 -11.33,-18.43 -16.98,-23.99 -7.14,-7.02 -15.21,-9.74 -23.39,-16.25 0.86,-0.86 1.15,-1.18 2.99,-2.46 10.77,-7.53 13.07,-5.21 26.43,-21.46 5.25,-6.39 5.04,-5.49 5.94,-10.61 -0.9,-4.57 3.6,-2.91 -4.17,-3.17 -5.08,-0.17 -2.72,0.21 -6.72,1.86 -7.56,5.1 -19.66,29.14 -56.3,29.07 -0.27,-24.11 1.3,-49.73 3.13,-73.47 1.03,-13.4 7.78,-59.59 6.37,-67.8l-1.14 -10.27c-5.2,0.1 -5.2,1.3 -8.62,4.75z"/>
   <path class="fil2 str0" d="M4488.6 14852.58l1.65 64.35c-55.71,-3.4 -60.25,-43.4 -69.02,-54.9l-8.62 -0.63 -0.83 3.72c0.22,9.51 12.39,29.35 17.28,35.12 15.33,18.09 21.67,16.31 29.45,23.22 -14.45,10.29 -24.24,12.49 -37.29,34.15 -18.28,30.32 -24.89,80.45 -30.79,116.1 -3.61,21.79 -9.28,41 -13.35,61.29l12.24 -1.54c10.77,-21.46 18.28,-95.26 25.78,-125.78 10.37,-42.17 27.3,-75.23 74.87,-78 -3.59,216.56 -73.32,428.78 -201.58,592.88l-51.75 63.42c1.76,-0.12 5.55,-0.6 7.09,-0.36 4.94,0.78 3.44,-1.39 4.18,2.99 15.5,-9.94 66.11,-79.86 80.18,-99.73 10.37,-14.64 5.83,-13.43 13.86,-13.98 -0.26,-0.5 -1.14,-2.92 -1.18,-3.09 -0.05,-0.18 0.41,-0.66 -0.11,-0.89 2.69,-6.6 0.92,-3.94 6.2,-6.83 -0.09,-6.26 16.73,-31.01 20.87,-37.93 36.6,-61.25 70.26,-140.39 91.06,-209.18 9.55,-31.59 15.57,-64.55 24.14,-95.37 0.95,-7.25 0.15,-7.45 4.08,-12.86 -2.22,-8.16 6.2,-49.98 7.68,-62.24 2.61,-21.56 4.58,-44 5.82,-65.4 2.92,-50.26 -0.99,-93.87 -1.65,-141.82 -5.16,-5.4 4.47,6.94 -1.68,-3.59 -0.26,-0.44 -1,-1.93 -1.35,-2.32 -3.43,-3.84 6.38,-2.36 -6.4,-2.76l-0.77 4.28c-0.33,6.45 1.91,9.41 -0.06,17.68z"/>
   <path class="fil2 str0" d="M3286.35 15732.13c-3.49,-2.29 -1.97,-4.01 -8,-2.77 -4.86,1 -2.74,-1.39 -2.85,4.05 2.25,19 33.95,39.37 51.25,47.36 57.19,26.4 150.59,21.9 191.13,56.23 17.38,14.72 14.92,21.61 21.94,28.15 4,-3.81 11.35,-2.19 18.1,-2.19l0.87 4.99c6.56,-6.12 6.18,-17.64 21.36,-29.98 46.97,-38.22 138.36,-29.01 199.19,-60.14 17.29,-8.85 47.98,-33.45 49.1,-54.45l-1 -5.2 -8.66 1.48c-12.82,22.69 -22.71,38.11 -50.89,50.15 -52.79,22.56 -116.6,21.28 -164.03,40.74 -20.6,8.46 -39.18,20.58 -49.21,39.47l-5.26 8.38c-11.2,-20.22 -16.1,-26.52 -33.7,-37.95 -53.4,-34.67 -178.23,-25.14 -218.77,-74.66 -2.5,-3.05 -7.46,-11.02 -10.57,-13.66z"/>
   <path class="fil2 str0" d="M4236 14801.81l7.43 77.54c8.71,148.17 -26.48,290.88 -100.71,417.37l-34.47 53.59 11.71 1.2c6.3,-3.89 7.13,-7.63 12.43,-15.68 20.91,-31.78 57.53,-93.06 67.16,-125.82l4.85 -12.33 6.31 2.08 1.87 -0.86 -6.12 -4.18c7.72,-27.54 17.86,-49.47 27.8,-88.11 7.88,-30.64 14.11,-65.15 17.77,-98.23 7.48,-67.46 6.66,-150.32 -6.75,-214.6l-8.98 -1.02 -0.3 9.05zm2.55 -173.82c-4.34,1.9 -10.21,7.41 -15.21,10.6 -2.79,1.78 -5.35,3.3 -8.41,5.25 -4.6,2.94 -3.57,1.18 -6.42,5.45 21.14,-1.12 98.42,-31.04 141.99,15.58 38.52,41.23 36.79,124.23 45.88,135.16 4.05,-2.93 6.6,-1.23 10.71,0.58 -3.75,-44.34 -18.68,-105.66 -39.56,-133.99 -45.41,-61.61 -119.63,-30.73 -128.98,-38.63z"/>
   <path class="fil2 str0" d="M3377.94 15975.47l-9.4 -0.71c-2.2,3.32 -3.84,-4.54 -1.22,4.74 1.97,13.99 17.24,29.57 29,37.08 32.27,20.6 77.12,13.15 111.14,22 9.91,2.59 16.05,5.43 22.27,11.77 6.95,7.07 6.79,8.89 10.48,16.92l2.52 4.92 0.92 -4.6 14.91 0.61c10.53,-17.63 10.83,-24.42 36.99,-30.46 19.32,-4.47 41.25,-4.04 61.43,-6.62 19.59,-2.51 38.09,-8.18 50.9,-17.64 8.78,-6.49 27.3,-26.48 27.06,-42.06l-1.35 -5.68 -8.42 1.82c-10.34,19.84 -9.25,25.42 -27.04,37.85 -28.05,19.59 -76.96,12.41 -111.18,21.94 -28.77,8.01 -28.73,21.02 -38.03,29.11 -12.27,-30.1 -51.38,-32.79 -89.96,-35.93 -32.51,-2.65 -69.4,-9.85 -81.02,-45.06z"/>
   <path class="fil2 str0" d="M4075.36 15618.8l13.13 -0.99 0.56 3.28c9.24,-3.09 18.59,-10.55 28.04,-15.61 21.21,-11.36 44.6,-18.68 68.14,-9.23 7.63,3.07 21.96,9.27 23.82,18.3 14.58,0.31 11.32,-2.6 12.52,-12.17 -5.54,-0.87 -3.89,1.78 -10.79,-9.58 -43.8,-72.12 57.12,-151.56 62.68,-183.69l-11.53 -0.9c-16.32,24.05 -35.19,48.96 -51.08,76.05 -24.57,41.88 -27.82,60.09 -18.18,101.23 -26.29,-7.93 -42.2,-8 -67.43,2.47 -13.1,5.43 -44.74,22.1 -49.88,30.84z"/>
   <path class="fil2 str0" d="M4101.97 14070.53l-2.15 0c-1.34,14.73 -10.87,25.93 -14.84,39.03l23.32 -24.47c88.87,-89.4 124.97,10.03 180.39,34.28 18.85,8.24 21.9,3.56 39.45,2.79 -2.42,8.67 -4.85,19.64 -0.71,27.28l0.91 -17.46 5.84 0.04c3.3,6.44 -1.34,12.03 4.91,19.99 -5.18,-34.7 9.55,-33.98 17.69,-53.29l-8.99 -6.77c-44.31,47.61 -75.76,-0.73 -116.56,-32.87 -71.72,-56.47 -118.69,10.36 -127.42,11.72 -0.17,0.02 -0.77,-0.09 -0.91,-0.09 -0.15,0.01 -0.66,-0.02 -0.93,-0.18z"/>
   <path class="fil2 str0" d="M4409.9 14529.13c0.76,8.24 22.11,58.31 26.97,73.21 8.51,26.07 16.18,50.64 22.85,77.76 6.73,27.37 12.66,55 17.32,83.33 2,12.17 9.14,85.92 11.56,89.15 1.97,-8.27 -0.27,-11.23 0.06,-17.68l0.77 -4.28c12.78,0.4 2.97,-1.08 6.4,2.76 0.35,0.39 1.09,1.88 1.35,2.32 6.15,10.53 -3.48,-1.81 1.68,3.59 -1.65,-34.31 -10.45,-68.16 -12.88,-100.09l4 -1.19 0 -2.28c-5.84,0.27 -6.51,1.9 -6.94,-5.36 -0.32,-5.42 -0.81,-2.39 3.96,-6.18 -4.35,-1.16 -4.56,1.23 -6.81,-11.3 -0.91,-5.09 -1.88,-9.26 -3.01,-14.21l-20.87 -76.57c-5.57,-17.68 -27.71,-84.33 -35.52,-94.47 -3.8,-1.7 -2.26,-2.78 -7.74,-1.68 -5.1,1.02 -2.54,-2.51 -3.15,3.17z"/>
   <path class="fil2 str0" d="M3098.63 13908.85c6.41,0.07 9.37,-1.25 13.64,1.74 10.91,-7.32 14.42,-22.2 16.02,-34.42 14.21,6.75 20.51,18.67 56.58,10.53 40.89,-9.22 100.29,-46.58 137.35,1.43 2.91,3.78 5.35,7.08 7.8,10.93 1.31,2.05 1.95,3.27 3.22,5.24l5 6.22c4.46,-3 5.45,-2 11.34,-0.48 -6.17,-18.6 -22.96,-37.87 -38.94,-47.88 -44.8,-28.03 -100.46,10.43 -138.89,14.56 -27.34,2.93 -44.78,-14.72 -50.13,-35.73l-11.83 4.15c3.71,11.08 7.73,22.01 5.71,35.38 -1.98,13.11 -8.41,17.97 -15.16,26.12l-1.71 2.21z"/>
   <path class="fil2 str0" d="M3755.11 15944.84c2.17,14.54 26.82,36.75 40.18,42.96 60.62,28.17 127.08,-43.59 167.09,-8.4 8.45,7.43 10.05,16.86 16.94,26l10.33 -3.5c-13.82,-51.39 0.14,-41.02 4.18,-58.06l-12.5 -0.16c-6.16,3.77 -9.04,17.57 -9.75,26.41 -9.89,-4.27 -12.13,-9.14 -25.95,-11.66 -26.13,-4.77 -59.65,11.12 -84.93,18.5 -34.99,10.22 -56.29,8.46 -80.34,-15.16 -5.13,-5.04 -11.1,-15.56 -14.6,-18.09 -4.06,-0.75 -9.45,-2.77 -10.65,1.16z"/>
   <path class="fil2 str0" d="M2709.86 15623.37c18.35,29.53 57.98,57.89 51.28,91.51 -2.85,14.33 -11.37,20.9 -18.03,30.9l7.57 8.2c34.66,-27.3 45.06,-26.01 80.55,1.93 8.01,6.3 14.78,14.79 23.31,18.46 -3.2,-6.84 -1.05,-1.24 0.48,-3.53l11.77 1.16c-4.86,-7.53 -30.38,-28.45 -39.06,-34.77 -18.17,-13.27 -29.85,-17.25 -56.26,-12.29 7.78,-53.5 -18.66,-61.71 -50.24,-106.02l-9.53 -0.4c-2.83,2.8 -3.47,-4.29 -1.84,4.85z"/>
   <path class="fil2 str0" d="M3061.85 15645.24c-2.47,-0.28 -6.6,-1.01 -9.01,-0.76 -9.92,1.05 -4.52,-1.42 -7.05,3.11 25.43,18.61 69.84,53.12 114.58,53.38 25.45,0.15 47.35,-10.49 62.12,-22.77 11.26,-9.37 33.54,-31.77 39.84,-45.68 3.17,-5.65 12,-29.81 9.2,-36.49 -17.34,33.93 -48.88,75.92 -85.19,88.63 -53.59,18.76 -99.32,-27.03 -124.49,-39.42z"/>
   <path class="fil2 str0" d="M4234.55 15769.53c1.59,-0.08 6.17,-0.54 7.54,-0.37 8.24,1 3.3,-1.41 7.07,2.94l21.37 -18.28c6.14,-5.04 14.89,-11.95 23.61,-15.71 25.58,-11.03 41.08,4.75 53.4,16.02l9.02 -6.3c-4.44,-14 -34.3,-28.79 -8.8,-70.37 12.84,-20.93 30.94,-35.28 43.04,-55.47 -3.54,-4.8 0.52,-2.22 -5.46,-3.35 -3.44,-0.65 -4.01,0.35 -7,1.11 -6.14,5.59 -12.29,14.75 -18.54,21.99 -23.74,27.51 -38.41,45.23 -31.95,83.06 -38.24,-7.49 -50.79,8.58 -75.29,28.08 -5.18,4.12 -14.6,12.28 -18.01,16.65z"/>
   <path class="fil2 str0" d="M3868.03 15654.85c-4.48,-1.99 -1.96,-2.49 -8.02,-1.87 -5.33,0.56 -2.31,-0.89 -5.2,2.67 5.46,11.96 34.52,32.61 50.92,39.14 47.13,18.79 95.58,-9.2 132.1,-35.55 7.58,-5.47 48.89,-34.63 51.22,-38.15l-0.56 -3.28 -13.13 0.99c-9.03,1.97 -57.36,43.94 -95.81,60.66 -32.09,13.96 -61.21,12.77 -90.31,-7.38 -5.96,-4.13 -17.25,-15.83 -21.21,-17.23z"/>
   <path class="fil2 str0" d="M2605.06 15460.61c3.12,-3.64 5.99,-2.02 11.66,-1.58 -5.22,-9.98 -11.06,-18.47 -16.65,-29.8 -5.63,-11.4 -9.54,-19.93 -15.32,-30.8 -10.5,-19.73 -23.61,-37.39 -51.63,-40.78 7.85,-23.16 21.09,-14.1 5.62,-76.19l-12.15 0.66c10.04,47.72 12.68,64.4 -28.11,82.99l3.66 10.47c18.34,-2.27 41.12,-20.37 67.35,21.07 6.95,10.98 11.23,20.66 16.89,32.56 4.52,9.49 11.08,26.35 18.68,31.4z"/>
   <path class="fil2 str0" d="M2612.46 14723.91l-2.84 1.48 6.36 2.98c-2.28,8.72 0.7,10.18 -3.3,17.04l-3.43 24.49c3.42,-3.45 3.42,-4.65 8.62,-4.75l1.14 10.27c3.01,-4.36 3.3,-10.4 4.08,-15.75 4.48,-30.49 15.13,-74.32 22.94,-103.23l35.77 -108.93c-1.21,-5.03 2.77,-2.68 -4.27,-3.09 -5.2,-0.31 -2.43,-0.01 -6.66,1.6 -10.79,20.26 -24.02,62.92 -31.13,87.06l-18.47 70.44c-4.02,18.17 -1.23,21.57 -8.81,20.39z"/>
   <path class="fil2 str0" d="M2488.86 15080.28c0.47,-5.44 -1.31,-2.02 3.18,-3.38 2.19,-0.67 4.84,-0.24 7.19,-0.16 -26.97,-56.47 -4.69,-108.61 -35.79,-142.17 -6.13,-6.63 -7.23,-5.68 -14.01,-11.11 7.09,-7.41 15.3,-6.88 17.5,-17.32 -0.6,-5.11 1.32,-3 -4.24,-3.59 -4.64,-0.48 -2.74,0.11 -6.56,1.44 -5.09,2.6 -8.49,6.53 -17,9.63 -9,3.27 -15.69,2.31 -24.76,4.23l-0.22 11.17c34.82,4.7 50.31,7.46 55.79,57.45 1.78,16.26 2.92,81.32 18.92,93.81z"/>
   <path class="fil2 str0" d="M4600.3 15077.58c5.87,-1.42 7.43,-2.62 11.22,0.94 15.33,-11.95 16.4,-77.65 18.21,-93.4 4.33,-37.62 15.47,-54.25 55.08,-55.76l0.56 -11.94c-24.86,-1.9 -27.29,-3.27 -41.9,-14.4 -6.31,-0.7 -9.86,-2.68 -12.22,2.11 3.46,8.94 12.28,11.4 18.69,18.33 -12.56,10.63 -15.49,8.72 -23.83,25.8 -10.94,22.42 -9.28,62.69 -13.32,89.15 -2.89,18.97 -7.8,25.07 -12.49,39.17z"/>
   <path class="fil2 str0" d="M4375.08 14354.9l-14.97 14.42c-4.98,4.4 -9.69,8.48 -13.82,13.48 14.19,-4.86 26.59,-14.98 53.02,-21.94 22.7,-5.98 43.66,-6.48 62.04,5.5 25.54,16.64 37.81,52.75 52.06,79.26 2.83,5.26 4.15,8.94 8.38,12.9 2.8,-4.51 6.3,-2.7 12.17,-1.44l-24.33 -46.88c-49.53,-101.33 -112.01,-55.65 -134.55,-55.3z"/>
   <path class="fil2 str0" d="M3794.74 14093.44c2.55,-4.76 0.06,-1.96 5.47,-2.99 3.21,-0.62 5.82,0.16 8.9,0.59 -13.01,-22.97 -75.8,-38.69 -95.93,-42.66 -27.29,-5.39 -59.2,-9.44 -85.67,-16.86 -7.33,-2.06 -20.68,-7.81 -26.39,-8.45 -5.58,0.33 -14.32,-1.03 -18.5,1.43 25.05,26.23 133.5,27.41 189.89,54.83 10,4.87 14.35,9.44 22.23,14.11z"/>
   <path class="fil2 str0" d="M2801.53 14558.89l12.6 1.16c-5.38,-23.1 -11.64,-31.31 -4.94,-59.47 12.45,-52.3 65.7,-109.61 73.07,-129.21 -2.93,-3.33 -0.12,-1.98 -5.14,-2.49 -4.6,-0.46 -3.05,0.19 -6.96,1.42 -5.71,4.27 -46.15,67.45 -53.34,79.91 -15.14,26.28 -33.47,74.86 -15.29,108.68z"/>
   <path class="fil2 str0" d="M4499.79 15430.15c5.13,-1.35 6.64,-2.57 11.09,0.12 0.35,-0.31 0.85,-1.29 1,-1 0.45,0.9 20.7,-38.12 27.76,-46.15 4.69,-5.33 14.04,-11.86 24.84,-13.03 14.45,-1.55 21.64,4.7 32.44,5.26l4.03 -9.82c-14.36,-9.21 -25.32,-12.66 -31.69,-27.19 -9.29,-21.2 1.97,-35.01 1.36,-51.81l-1.03 -5.46 -8.83 1.44c-3.74,11.02 -7.15,25.44 -6.98,38.49 0.26,20.09 5.81,23.38 12.46,35.8 -13.25,5.83 -24.63,2.15 -41.84,26.44 -8.48,11.96 -20.24,32.11 -24.61,46.91z"/>
   <path class="fil2 str0" d="M4227.14 14386.05c2.34,7.39 20.28,31.09 26.17,39.92 8.28,12.4 18.16,27.33 24.86,41.7 6.72,14.42 14.09,32.38 14.73,51.46 0.97,29.23 -8.34,34.62 -14.95,54.57 4.37,-1.53 1.7,-1.63 6.63,-1.24 4.77,0.38 2.21,-0.53 5.2,2.01 0.31,-0.35 0.75,-1.36 0.88,-1.08 0.27,0.58 15,-20.43 14.42,-52.62 -0.36,-20.19 -6.62,-38.17 -13.92,-54.16 -6.98,-15.26 -45.58,-77.63 -52.74,-82.28 -3.83,-2.37 -1.83,-3.93 -8.12,-2.44 -5.67,1.35 -3.09,-1.96 -3.16,4.16z"/>
   <path class="fil2 str0" d="M2723.31 14354.42c5.64,6.06 9,4.85 17.53,9.51 7.16,3.91 11.69,7.22 19.79,8.03 -3.76,-3.91 -5.75,-4.85 -9.67,-8.16 -4.04,-3.42 -5.41,-6.01 -8.98,-9.74 -3.07,-3.2 -5.75,-4.81 -8.96,-8.07 -33.93,-34.44 -44,-73.32 -14.33,-115.04 8.56,-12.03 28.88,-33.48 31.77,-40.78 -1.5,-5.46 3.22,-2.64 -4.63,-3.39 -4.17,-0.4 -3.23,0.29 -6.65,1.35 -7.84,3.26 -43.24,48.47 -49.08,75.61 -7.98,37.1 13.2,64.98 33.21,90.68z"/>
   <path class="fil2 str0" d="M3298.07 14084.35c2.43,-0.06 6.91,-0.47 9.12,-0.25 10.06,0.96 2.78,-0.95 6.39,2.15 16.4,-7.76 26.47,-13.8 46.32,-19.41 17,-4.8 35.84,-8.18 53.51,-11.3 27.79,-4.91 84.48,-14.58 100.96,-29.46 -4.1,-2.44 -14.05,-1.07 -19.84,-1.06 -6.58,0.33 -37.55,10.36 -49.56,12.73 -18.37,3.62 -36.23,6.35 -55.01,9.97 -17.39,3.34 -34.08,6.98 -50.09,12.71l-39.17 20.78c-2.16,2.2 -0.82,0.5 -2.63,3.14z"/>
   <path class="fil2 str0" d="M4212.58 15198.9l-1.87 0.86c3.53,3.06 9.32,6.18 13.72,9.19 2.86,1.96 4.89,3.52 7.29,4.63 3.91,1.81 5.89,1.31 9.8,3.22 39.96,3.61 68.39,6.77 100.27,-12.76 20.47,-12.54 40.34,-39.28 47.53,-70.58l-12.24 1.54c-2.86,4.53 -6.28,15.04 -8.89,20.37 -40.44,82.64 -133.06,42.27 -155.61,43.53z"/>
   <path class="fil2 str0" d="M4489.98 14735.73l0 2.28c37.95,-3.45 79.21,-1.03 101.04,20.75 31.23,31.17 18.34,83.61 27.12,95.64l0.77 -8.15c7.37,0.08 6.15,-0.29 9.6,7.94 0.15,0.36 0.35,0.97 0.63,1.4 -2.03,-34.9 -4.11,-74.07 -22.21,-97.41 -8.65,-11.14 -19.43,-19.12 -34.74,-24.99 -13.25,-5.08 -45.6,-7.49 -49.61,-9.42 -10.4,3.17 -21.02,8.43 -32.6,11.96z"/>
   <path class="fil2 str0" d="M4346.86 15464.09c-5.28,2.89 -3.51,0.23 -6.2,6.83 0.52,0.23 0.06,0.71 0.11,0.89 0.04,0.17 0.92,2.59 1.18,3.09l-0.49 -0.37c6.16,2.71 31.35,14.29 35.26,16.99 26.39,6.14 53.84,20.08 88.05,1.01 19.48,-10.85 45.46,-48.92 46.11,-62.26 -4.45,-2.69 -5.96,-1.47 -11.09,-0.12 -10.45,10.17 -25.83,83.1 -111.89,52.09 -14.16,-5.11 -29.97,-14.68 -41.04,-18.15z"/>
   <path class="fil2 str0" d="M2859.28 15216.4c3.45,3.84 2.55,-1.18 -0.05,3.14 -1.53,2.54 -30.22,20.35 -49.33,51.19 -15.99,25.79 -22.82,73.21 -8.64,87.13 -0.9,-8.32 0.23,-3.14 0.87,-5.12 3.88,0.05 2.74,-0.55 5.75,1.01 0.4,0.21 0.82,0.5 1.19,0.75l3.19 3.23c-9.93,-45.39 -6.17,-63.34 17.57,-94.36 10.53,-13.75 51.03,-48.59 70.39,-54.34l-5.08 -10.4 -4.94 -0.58 -1.44 1.65c-7.14,6.74 -20.93,13.56 -29.48,16.7z"/>
   <path class="fil2 str0" d="M2472.79 14825.55c3.31,-1.79 4.11,-2.27 9.54,-2.27l-0.03 19.12c8.53,-11.56 -4.09,-60.46 30.43,-87.24 25.43,-19.72 64.08,-19.58 100.97,-16.89l-1.02 7.14c4,-6.86 1.02,-8.32 3.3,-17.04l-6.36 -2.98 -31.07 -0.99c-34.1,2.96 -58.32,6.84 -78.31,25.12 -16.46,15.05 -26.09,45.12 -27.45,76.03z"/>
   <path class="fil2 str0" d="M2721.01 15158.76c0.89,9.95 13.72,24.93 19.54,30.99 7.53,7.82 17.07,15.83 30.11,21.09 30.8,12.42 54.86,9.45 88.62,5.56 8.55,-3.14 22.34,-9.96 29.48,-16.7l1.44 -1.65c-7.36,-0.6 -35.68,6.96 -47.68,8.33 -16.71,1.92 -34.36,1.98 -50.48,-1.56 -31.1,-6.84 -48.48,-25.39 -60.79,-49.65 -2.17,-0.1 -5.13,-0.63 -7.22,0.14 -4.97,1.84 -2.33,-2.41 -3.02,3.45z"/>
   <path class="fil2 str0" d="M2866.79 15772l-11.77 -1.16c-1.53,2.29 -3.68,-3.31 -0.48,3.53 2.45,6.33 54.93,58.82 112.97,22.47 19.7,-12.35 18.87,-15.26 30.34,-23.75l2.55 -4.71c2.58,-5.14 13.02,-26 11.5,-29.17 -88.25,104.59 -122.57,40.22 -145.11,32.79z"/>
   <path class="fil2 str0" d="M4553.89 14521.01c0.08,34.84 12.33,55.51 19.93,86.2 5.04,20.36 7.95,45.39 -4.79,64.89 -1.79,2.74 -4.15,6.18 -5.65,7.95 -4.27,5.04 -3.47,1.83 -6.59,7.73l11.12 0.04c1.13,1.79 0.8,-0.42 0.55,3.08 8.86,-4.06 16.16,-19.32 19.23,-31 3.94,-14.99 2.97,-31.48 -0.03,-46.31 -5.33,-26.36 -18.85,-53.35 -21.21,-79.63 -5.35,-6.48 -0.87,-10.74 -3.65,-16.72 -6.8,0.17 -7.78,3.07 -7.93,2.81 -0.19,-0.34 -0.65,0.64 -0.98,0.96z"/>
   <path class="fil2 str0" d="M3116.62 15964.28c1.59,-5.53 2.67,-3.54 10.04,-3.05 -9.34,-48 -77.89,-51.31 -112.22,-91.67 -5.45,-6.41 -6.64,-11.49 -11.12,-18.1l-2.72 -2.17c-7.82,-4.25 -7.62,-0.2 -8.53,0.82 -0.65,37.47 74.33,67.2 96.64,81.69 5.59,3.64 12.62,8.63 16.19,12.79 1.9,2.2 4.59,6.05 6.21,9.12l5.51 10.57z"/>
   <path class="fil2 str0" d="M2608.45 15111.12l-31.03 10.85c-8.09,5.97 -18.79,10.21 -26.85,15.67 -10.31,6.98 -17.77,13.19 -24.4,21.67 -10.22,13.07 -25.78,49.26 -13.95,70.08 2.02,-7.64 -1.1,-2.83 3.6,-4.11 3.94,-1.08 4.27,0.38 7.23,1.68 -4.79,-37.57 5.65,-56.85 25.48,-72.57 13.89,-11.02 46.22,-29.34 68.21,-32.5l-2.34 -12.7 -5.95 1.93z"/>
   <path class="fil2 str0" d="M3371.02 13856.59c2.81,-0.34 4.78,-1.23 7.55,-0.13 5.62,2.24 2.48,-2.53 3.45,4.25 12.37,-9.48 11.96,-28.83 71.86,-34.3 25.96,-2.38 74.78,-3.49 84.02,-22.68l-0.46 -2.12 -11.84 0.21c-9.85,1.88 -10.82,7.11 -39.92,10.23 -29.24,3.14 -62.64,1.72 -88.39,17.63 -10.19,6.29 -20.11,14.6 -26.27,26.91z"/>
   <path class="fil2 str0" d="M4482.93 15121.61c22.33,5.6 51.87,19.3 66.79,31.59 19.34,15.93 30.16,33.04 27.6,68.69l9.36 -0.09 0.78 5.92c8.97,-9.64 2.36,-49.4 -14.52,-68.74 -22.41,-25.69 -43.69,-30.13 -50.31,-37.1l-26.43 -8.89c-2.46,-1.04 -1.71,-0.59 -3.76,-1.84 -3.14,-1.91 -1.15,-0.35 -3.51,-2.9l-1.92 0.5c-3.93,5.41 -3.13,5.61 -4.08,12.86z"/>
   <path class="fil2 str0" d="M3264.28 14209.44c7.07,16.32 1.51,7.94 13.69,29.81 4.07,7.3 3.91,6.59 7.45,8.38 -7.36,-30.99 -14.73,-61.28 -10.46,-95.13 4.38,-34.76 19.2,-50.63 38.62,-66.25 -3.61,-3.1 3.67,-1.19 -6.39,-2.15 -2.21,-0.22 -6.69,0.19 -9.12,0.25 -13.58,8.59 -26.7,29.14 -32.2,50.68 -7.04,27.61 -3.15,46.85 -1.59,74.41z"/>
   <path class="fil2 str0" d="M4383.71 14325.8c5.48,-0.77 6.97,-2.03 11.18,0.8l5.77 -7.24c11.6,-22.77 14.31,-46.25 4.13,-70.46 -7.71,-18.35 -27.07,-43.95 -40.67,-57.55 -5.82,0.01 -10.4,-1.74 -12.51,2.28 8.79,17.43 54.37,51.5 46.58,95.93 -2.92,16.69 -10.32,23.99 -14.48,36.24z"/>
   <path class="fil2 str0" d="M3705.25 13845.59c3.98,-2.37 7.79,-1.3 13.25,-1.21 -7.83,-18.3 -47.1,-27.09 -65.67,-29.16 -14.31,-1.59 -28.2,-1.73 -42.61,-3.59 -6.88,-0.89 -13.93,-2 -20,-3.76 -6.35,-1.84 -11.49,-5.13 -16.41,-6.53 -5.26,0.4 -9.77,-0.49 -13.56,1.58 12.92,24.33 82.64,20.66 111.43,27.42 16.5,3.88 22.05,9.75 33.57,15.25z"/>
   <path class="fil2 str0" d="M3981.33 15943.68l12.5 0.16c2.62,-1.15 17.23,-12.75 30.49,-19.97 27.17,-14.81 73.78,-34.88 81.41,-66.51 -0.82,-4.28 -0.09,-2.79 -1.9,-5.16l-8.93 1.32c-12.32,24 -27.27,34.25 -52.81,47.15 -22.7,11.46 -51.38,24.89 -60.76,43.01z"/>
   <path class="fil2 str0" d="M2997.89 14073.24c5.5,5.31 8.63,11.09 13.68,16.31 4.6,4.76 3.79,4.1 7.12,8.42 2.16,2.79 3.9,5.31 6.37,5.2 -6.76,-23.77 -51.09,-88.63 -4.33,-133.2 3.71,-3.54 11.73,-8.68 14.03,-12.14 -3.85,-2.2 -10.7,-0.99 -15.44,-0.62 -12.29,3.63 -27.09,27.31 -30.41,47.23 -5.25,31.4 5.57,44.48 8.98,68.8z"/>
   <path class="fil2 str0" d="M2723.45 15491.13l28.81 -26.98c-22.43,9.86 -42.89,22.69 -71.39,25.26 -36.04,3.25 -49.43,-13.08 -64.15,-30.38 -5.67,-0.44 -8.54,-2.06 -11.66,1.58 2.7,13.55 28.3,33.77 46.08,38.73 27.18,7.59 49.01,-1.46 72.31,-8.21z"/>
   <path class="fil2 str0" d="M4199.55 15210.01c15.81,0.66 62.31,41.18 76.44,61.69 3.16,4.58 5.39,8.51 8.1,14.07 1.38,2.82 2.28,5.1 3.5,8.33 0.61,1.6 0.75,2.34 1.44,3.79l2.98 5c4.21,-2.67 4.37,-1.54 10.28,-1.61 -4.18,-21.01 -15.22,-35.87 -26.01,-48.64 -7.08,-8.37 -27.29,-29.21 -38.49,-33.48 2.6,-3 -3.58,-2.85 3.73,-2.36 -3.91,-1.91 -5.89,-1.41 -9.8,-3.22 -2.4,-1.11 -4.43,-2.67 -7.29,-4.63 -4.4,-3.01 -10.19,-6.13 -13.72,-9.19l-6.31 -2.08 -4.85 12.33z"/>
   <path class="fil2 str0" d="M2512.59 14656.12l1.17 -4.75 8.47 0.81c-1.64,-25 0.57,-36.55 7.63,-59.13 4.31,-13.77 15.41,-40.73 14.01,-55.64 -1.07,-6.91 1.21,-7.19 -1.07,-13.9l-9.19 0c0.84,30.19 -17.82,63.01 -22.98,96.62 -0.95,6.19 -1.38,12.03 -1.4,18.41 -0.02,6.22 -0.29,12.44 3.36,17.58z"/>
   <path class="fil2 str0" d="M3823.25 14205.51l9.35 0.18 0.9 3.67c7.21,-8.45 4.22,-55.17 1.57,-68.08 -4.23,-20.61 -14.46,-40.93 -25.96,-50.24 -3.08,-0.43 -5.69,-1.21 -8.9,-0.59 -5.41,1.03 -2.92,-1.77 -5.47,2.99 11.86,11.99 20.94,21.09 27.01,44.12 6.13,23.3 3.95,44.09 1.5,67.95z"/>
   <path class="fil2 str0" d="M2533.61 14523.51l9.19 0c2.28,6.71 0,6.99 1.07,13.9 10.48,-14.94 -6.53,-39.56 -10.94,-48.45 18.26,-2.06 35.52,-12.7 40.33,-24.21 -1.49,-5.92 4.23,-3 -4.81,-3.73 -5.2,-0.42 -2.73,0.1 -6.82,1.75 -5.47,1.24 -9.63,11.12 -24.17,13.5 -16.33,2.68 -22.76,-3.74 -35.44,-5.08l-3.63 10.27c21.83,8.64 31.04,18.75 35.22,42.05z"/>
   <path class="fil2 str0" d="M4553.89 14521.01c0.33,-0.32 0.79,-1.3 0.98,-0.96 0.15,0.26 1.13,-2.64 7.93,-2.81 2.78,5.98 -1.7,10.24 3.65,16.72 -1.79,-25.83 10.08,-44.78 34.46,-51.82l-3.68 -10.79c-13.29,0.95 -20.93,8.98 -38.63,4.19 -14.98,-4.05 -17.34,-13.19 -24.64,-18.46 -5.87,-1.26 -9.37,-3.07 -12.17,1.44 2.64,6.85 11.73,16.2 16.77,19.99 9.64,7.25 18.91,6.6 27.68,11.6 -5.9,10.64 -10.7,13.92 -12.35,30.9z"/>
   <path class="fil2 str0" d="M2752.26 15464.15l-28.81 26.98c-3.75,11.74 -29.05,27.89 -34.26,65.92 5.34,-3.16 2.37,-2.33 10.37,-2.33 -2.27,12.39 -2.05,13.56 -0.16,18.86l1.65 3.29c-1.49,-26.93 7.97,-45.93 20.24,-62.07 7.62,-10.01 30.89,-35.14 40.1,-39.9 -1.94,-4.34 -1.43,-2.85 -4.17,-6.8 -2.26,-3.27 -2.99,-4.41 -4.47,-7.25l-0.49 3.3z"/>
   <path class="fil2 str0" d="M3988.88 13911.55c6.22,11.35 32.62,23.49 47.96,31.46 37.92,19.7 35.43,24.43 48.97,33.2 -0.45,-6.42 -2.69,-2.24 2.87,-3.99 4.3,-1.35 5.03,0.06 8.49,1.13 -5.34,-13.04 -32.89,-29.36 -44.78,-35.7l-51.51 -28.16 -11.32 -0.79 -0.68 2.85z"/>
   <path class="fil2 str0" d="M4488.93 15108.25c2.36,2.55 0.37,0.99 3.51,2.9 2.05,1.25 1.3,0.8 3.76,1.84l26.43 8.89c19.28,0.09 40.05,-3.75 55.41,-10.87 12.96,-5.99 31.52,-19.4 33.48,-32.49 -3.79,-3.56 -5.35,-2.36 -11.22,-0.94 -8.28,7.89 -6.44,9.84 -17.95,17.26 -6.99,4.51 -15.61,8.23 -25.11,10.61 -19.84,4.96 -47.2,5.8 -68.31,2.8z"/>
   <path class="fil2 str0" d="M2488.86 15080.28c2.39,11.42 20.61,25.7 33.17,31.14 16.02,6.94 35.67,10.33 55.39,10.55l31.03 -10.85 0 -2.44c-48.67,4.44 -88.52,-1.53 -109.22,-31.94 -2.35,-0.08 -5,-0.51 -7.19,0.16 -4.49,1.36 -2.71,-2.06 -3.18,3.38z"/>
   <path class="fil2 str0" d="M4261.93 15408.21l11.53 0.9c8.67,-5.47 20.86,-35.03 24.82,-47.26 5.81,-17.95 9.32,-41.03 4.01,-60.57 -5.91,0.07 -6.07,-1.06 -10.28,1.61 -2.32,20.9 8.91,34.68 -16.87,81.86 -4.5,8.24 -9.71,15.47 -13.21,23.46z"/>
   <path class="fil2 str0" d="M4187.9 14281.96c-2.59,21.36 3.7,41.75 11.17,58.31 4,8.86 21.31,40.99 28.07,45.78 0.07,-6.12 -2.51,-2.81 3.16,-4.16 6.29,-1.49 4.29,0.07 8.12,2.44 -2.78,-7.38 -9.32,-16.1 -13.89,-23.4 -5.16,-8.23 -8.26,-13.59 -12.96,-22.9 -9.01,-17.85 -14.17,-35.69 -11.62,-59.06l-12.05 2.99z"/>
   <path class="fil2 str0" d="M2512.59 14656.12c-1.77,15.02 17.86,36.74 24.74,42.5 11.42,9.57 25.47,18.72 41.22,25.78l31.07 0.99 2.84 -1.48c-20.75,-6.02 -40.48,-15.23 -56.02,-25.63 -17.21,-11.53 -26.76,-21.91 -34.21,-46.1l-8.47 -0.81 -1.17 4.75z"/>
   <path class="fil2 str0" d="M4202.19 14636.59c-0.91,2.56 -2.42,2.09 -0.12,7.48 3.02,7.04 0.83,3.54 6.44,5.22 2.85,-4.27 1.82,-2.51 6.42,-5.45 3.06,-1.95 5.62,-3.47 8.41,-5.25 5,-3.19 10.87,-8.7 15.21,-10.6 13.79,-9.05 46.23,-38.55 51.23,-53.52 -2.99,-2.54 -0.43,-1.63 -5.2,-2.01 -4.93,-0.39 -2.26,-0.29 -6.63,1.24 -1.83,1.02 -12.22,14.05 -15.17,17.3 -4.98,5.48 -12.12,12.49 -18.44,17.41 -11.78,9.18 -27.45,21.52 -42.15,28.18z"/>
   <path class="fil2 str0" d="M2862.3 14629.49c6.69,2.71 10.9,3.56 18.53,5.41 6.68,1.63 8.66,3.27 14.55,2.89l1.84 -0.59c-18.25,-10.02 -32.55,-21.57 -47.09,-33.02 -6.55,-5.16 -15.42,-14.67 -20.22,-20.73 -3.33,-4.19 -14.39,-22.12 -15.78,-23.4l-12.6 -1.16c12.48,34.07 38.1,51.17 60.77,70.6z"/>
   <path class="fil2 str0" d="M4085.81 13976.21c1.94,5.39 6.42,10.27 9.34,17.66 3.07,7.79 4.5,16.01 4.56,25.36 0.15,21.49 -6.13,31.85 -10.13,49.8 5.33,0.17 6.46,-0.74 10.24,1.5l2.15 0c8.04,-31.35 17.79,-72.49 -4.8,-97.18 -3.46,-1.07 -4.19,-2.48 -8.49,-1.13 -5.56,1.75 -3.32,-2.43 -2.87,3.99z"/>
   <path class="fil2 str0" d="M3730.54 13948.56l3.1 -14.15 9.48 0 -0.09 -13.51c-2.65,-27.56 -6.61,-64.45 -24.53,-76.52 -5.46,-0.09 -9.27,-1.16 -13.25,1.21 3.41,4.99 8.23,9.22 12.65,17.08 4.09,7.28 6.58,14.9 8.66,23.56 5.49,22.96 2.75,39.32 3.98,62.33z"/>
   <path class="fil2 str0" d="M3019.32 13957.21c4.74,-0.37 11.59,-1.58 15.44,0.62 7.44,-2.33 31.84,-16.59 41,-21.56 12.4,-6.73 31.71,-17.19 36.51,-25.68 -4.27,-2.99 -7.23,-1.67 -13.64,-1.74 -5.54,2.62 -12.04,7.81 -18.48,11.41 -7.17,4.02 -13.7,7.57 -21.18,11.21 -10.27,5 -35.66,17.17 -39.65,25.74z"/>
   <path class="fil2 str0" d="M2899.65 14303.45c-2.28,13.11 -6.83,24.43 -11.87,35.33 -5.15,11.11 -13.31,20.86 -17.62,31.52 3.91,-1.23 2.36,-1.88 6.96,-1.42 5.02,0.51 2.21,-0.84 5.14,2.49l2.75 -3.02c15.01,-19.21 31.35,-62.57 26.02,-89.8l-9.56 -3.02c0.6,11.56 3.97,19.75 -1.82,27.92z"/>
   <path class="fil2 str0" d="M2692.18 14800.6c-1.65,14.06 -5.84,32.02 -9.78,45.9 -4.81,17 -11.89,27.53 -16.59,41.12 4,-1.65 1.64,-2.03 6.72,-1.86 7.77,0.26 3.27,-1.4 4.17,3.17 5.32,-3.53 6.85,-9.16 10.39,-17.49 3,-7.06 4.93,-13.54 7.13,-21.77 3.02,-11.29 9.7,-36.09 8.61,-46.96 -2.13,-5.87 1.84,-3.39 -4.67,-3.91 -4.12,-0.33 -1.94,0.09 -5.98,1.8z"/>
   <path class="fil2 str0" d="M4399.8 15559.04l0.81 -4.33 9.4 0.01c-2.34,-14.49 -8.09,-25.74 -14.26,-35.98 -2.97,-4.94 -6.26,-9.29 -9.87,-14.03 -3.72,-4.86 -10.22,-9.7 -9.16,-13.19 -3.91,-2.7 -29.1,-14.28 -35.26,-16.99 1.85,4.07 23.41,24.01 34.18,37.01 20.23,24.42 18.43,40.83 24.16,47.5z"/>
   <path class="fil2 str0" d="M4487 14724.19c-4.77,3.79 -4.28,0.76 -3.96,6.18 0.43,7.26 1.1,5.63 6.94,5.36 11.58,-3.53 22.2,-8.79 32.6,-11.96 16.97,-10.87 37.79,-17.86 45.88,-32.87 0.25,-3.5 0.58,-1.29 -0.55,-3.08l-11.12 -0.04c-21.56,18.56 -38.8,24.16 -69.79,36.41z"/>
   <path class="fil2 str0" d="M3357.05 13921.79c1.48,6.31 4.38,13.58 5.81,19.31 1.7,6.83 2.49,14.51 7,17.76 1.2,-16.36 -1.91,-34.15 -0.09,-53.03 2.09,-21.52 6.66,-28 12.25,-45.12 -0.97,-6.78 2.17,-2.01 -3.45,-4.25 -2.77,-1.1 -4.74,-0.21 -7.55,0.13 -8.55,17.74 -15.8,42.04 -13.97,65.2z"/>
   <path class="fil2 str0" d="M3271.53 15596.03c2.8,6.68 -6.03,30.84 -9.2,36.49 2.84,3.65 2.45,5.1 1.23,13.46 -1.45,9.9 -4.22,34.71 -0.33,41.65l0.7 -13.68 7.37 0c0.03,6.64 -0.14,9.57 3.01,15.17 -0.69,-17.71 -0.35,-31.75 2.28,-49.04 2.17,-14.23 6.37,-27.74 8.27,-41.01 -5.29,-3.62 -9.36,-3.95 -13.67,-6.61l0.34 3.57z"/>
   <path class="fil2 str0" d="M2801.26 15357.86c0,10.45 10.79,29.62 15.78,38.76 6.15,11.24 12.51,24.32 20.72,32.46 2.8,-5.7 -1.88,-2.14 5.4,-3.06 5,-0.63 2.65,-0.1 6.8,1.17 -3.56,-8.52 -14.77,-23.8 -20.24,-32.99 -6.69,-11.26 -11.23,-22.65 -17.46,-36.47l-3.19 -3.23c-0.37,-0.25 -0.79,-0.54 -1.19,-0.75 -3.01,-1.56 -1.87,-0.96 -5.75,-1.01 -0.64,1.98 -1.77,-3.2 -0.87,5.12z"/>
   <path class="fil2 str0" d="M4099.06 15837.23c3.48,-8.03 -0.28,-6.13 9.92,-6.13l1.74 6.66c3.58,-8.9 0.78,-24.28 -1.31,-34.52 -1.2,-5.83 -2.3,-10.84 -3.99,-16.24 -1.8,-5.75 -4.69,-10.46 -3.09,-13.68 -9.91,-10.26 -16.77,-20.01 -27.47,-30.81l-3.08 1.72c7.7,2.38 17.23,32.71 19.59,39.57 6.27,18.25 8.99,32.79 7.69,53.43z"/>
   <path class="fil2 str0" d="M3525.6 13801.82l11.84 -0.21 0.46 2.12c7.29,-3.78 6.52,-5.75 11.49,-13.06 0.69,0.68 1.03,0.99 2.32,2.7 3.69,4.91 3.21,6.08 8.54,9.55 3.79,-2.07 8.3,-1.18 13.56,-1.58 -0.27,-0.39 -0.73,-1.43 -0.89,-1.13l-6.76 -7.65c-2.52,-3.18 -4.49,-6.72 -6.09,-10.91 -9.02,-23.5 3.51,-27.84 -14.09,-27.84l-2.29 6.1c-3.5,15.73 1.02,19.54 -14,36.56 -0.35,0.38 -1.34,1.54 -1.66,1.95 -2.4,3.02 -0.41,0.45 -2.43,3.4z"/>
   <path class="fil2 str0" d="M2472.79 14825.55c-0.6,13.19 -1.95,30.59 -3.83,43.02 -2.89,19.19 -8.52,23.21 -12.83,35.42 3.82,-1.33 1.92,-1.92 6.56,-1.44 5.56,0.59 3.64,-1.52 4.24,3.59 12.06,-7.41 17.68,-46.91 15.37,-63.74l0.03 -19.12c-5.43,0 -6.23,0.48 -9.54,2.27z"/>
   <path class="fil2 str0" d="M3813.74 15598.81c5.02,3.78 16.14,26.41 21.68,32.88 6.58,8.67 11.81,18.39 19.39,23.96 2.89,-3.56 -0.13,-2.11 5.2,-2.67 6.06,-0.62 3.54,-0.12 8.02,1.87 -3.17,-6.18 -6.01,-8.86 -11.24,-15.12 -4.06,-4.87 -7.07,-9.33 -10.82,-14.79 -4.97,-7.25 -17.49,-24.42 -18.19,-32.61l-10.48 5.21c-0.72,0.25 -2.12,1.32 -2.36,0.84 -0.19,-0.36 -0.81,0.26 -1.2,0.43z"/>
   <path class="fil2 str0" d="M4339.05 14371.55c1.37,6.59 2.31,8.08 7.24,11.25 4.13,-5 8.84,-9.08 13.82,-13.48l14.97 -14.42c4.71,-7.81 18.14,-18.52 19.81,-28.3 -4.21,-2.83 -5.7,-1.57 -11.18,-0.8 -3.66,2.49 -6.67,7.81 -9.55,11.51 -3.49,4.48 -7.73,8.52 -11.33,12.54 -3.41,3.81 -19.2,19.16 -23.78,21.7z"/>
   <path class="fil2 str0" d="M4399.8 15559.04c-2.06,15.16 -0.69,20.58 -6.41,34.63 -4.01,9.86 -11.08,17.3 -15.05,26.08 2.99,-0.76 3.56,-1.76 7,-1.11 5.98,1.13 1.92,-1.45 5.46,3.35 2.34,-2.26 2.33,-2.08 4.81,-5.96 1.31,-2.06 3.01,-5.03 4.4,-7.5 2.69,-4.82 4.71,-9.5 6.71,-15.47 4.41,-13.18 4.99,-24.18 3.29,-38.34l-9.4 -0.01 -0.81 4.33z"/>
   <path class="fil2 str0" d="M2689.19 15557.05c-2.76,21.03 4.84,48.99 19.75,65.41 0.19,0.2 0.61,0.61 0.92,0.91 -1.63,-9.14 -0.99,-2.05 1.84,-4.85l9.53 0.4c-10.03,-15.72 -15.04,-20.91 -20.18,-42.05l-1.65 -3.29c-1.89,-5.3 -2.11,-6.47 0.16,-18.86 -8,0 -5.03,-0.83 -10.37,2.33z"/>
   <path class="fil2 str0" d="M3725.17 15967.56l8.42 -1.82 1.35 5.68 4.21 -10.56c0.79,-3.92 1.26,-7.35 1.78,-11.39l1.53 -19.33c0.1,-0.51 0.2,-0.96 0.31,-1.43l1.54 -3.64c-0.85,-5.64 -0.59,-3.51 -2.88,-9.32 -1.46,-3.7 -2.45,-5.97 -3.7,-9.64 -2.16,-6.33 -2.74,-14 -8.35,-18.04 4.12,29.99 0.6,52.1 -4.21,79.49z"/>
   <path class="fil2 str0" d="M3011.9 15739.21c1.52,3.17 -8.92,24.03 -11.5,29.17l-2.55 4.71 -6.21 25.43c0.39,-0.4 0.87,-1.65 1.1,-1.27l3.27 -2.73c1.9,-0.81 3.54,-0.47 5.73,-0.48l0.77 3.69c7.76,-7.44 13.8,-47.98 25.24,-53.9l-13.97 -10.02 -1.88 5.4z"/>
   <path class="fil2 str0" d="M4411.78 14865.12l0.83 -3.72 8.62 0.63c-1.73,-10.12 -5.81,-20.79 -8.11,-31.15 -2.27,-10.22 -3.82,-20.47 -6.03,-30.27 -4.11,-1.81 -6.66,-3.51 -10.71,-0.58 -0.64,7.69 7.54,57.57 15.4,65.09z"/>
   <path class="fil2 str0" d="M3825.6 15680.81l2.96 -5.68c0.13,-0.25 0.38,-0.8 0.62,-1.18l8.76 0 -2.52 -42.26c-5.54,-6.47 -16.66,-29.1 -21.68,-32.88 7.76,19.81 12.3,58.67 11.86,82z"/>
   <path class="fil2 str0" d="M4560.76 15282.51l8.83 -1.44 1.03 5.46c2.84,-2.92 1.03,0.66 3.42,-5.65 0.79,-2.1 1.38,-5.22 2.2,-7.83 1.39,-4.36 3.17,-9.37 4.63,-14.23 3.04,-10.12 7.1,-20.51 6.59,-31.1l-0.78 -5.92 -9.36 0.09c-1.96,20.86 -11.59,40.41 -16.56,60.62z"/>
   <path class="fil2 str0" d="M3726.58 15887.25l2.8 0.82c5.61,4.04 6.19,11.71 8.35,18.04 1.25,3.67 2.24,5.94 3.7,9.64 2.29,5.81 2.03,3.68 2.88,9.32 1.19,5.86 5.82,16 10.8,19.77 1.2,-3.93 6.59,-1.91 10.65,-1.16 -6.19,-18.28 -19.43,-36.79 -23.19,-59.71l-15.99 3.28z"/>
   <path class="fil2 str0" d="M4327.43 14149.44c-0.12,11.25 9.37,25.52 15.75,34.75l8.43 9.44c2.11,-4.02 6.69,-2.27 12.51,-2.28 -5.23,-7.19 -8.94,-11.3 -14.13,-18.91 -4.24,-6.23 -7.58,-12.93 -10.9,-20.43 -6.25,-7.96 -1.61,-13.55 -4.91,-19.99l-5.84 -0.04 -0.91 17.46z"/>
   <path class="fil2 str0" d="M2512.22 15229.39c-0.52,9.08 3.24,18.97 5.92,27.52 1.8,5.74 2.5,7.54 4.07,13 1.2,4.15 3.44,10.57 4.38,12.21l12.15 -0.66c-4.76,-19.3 -12.35,-34.24 -15.69,-54.5 -2.96,-1.3 -3.29,-2.76 -7.23,-1.68 -4.7,1.28 -1.58,-3.53 -3.6,4.11z"/>
   <path class="fil2 str0" d="M4618.14 14854.4c-1.22,9.48 0.84,18.52 2.86,27.94 1.8,8.37 4.35,17.78 10.25,22.79 2.36,-4.79 5.91,-2.81 12.22,-2.11 -8.28,-17.13 -12.48,-23.65 -14.33,-47.43 -0.28,-0.43 -0.48,-1.04 -0.63,-1.4 -3.45,-8.23 -2.23,-7.86 -9.6,-7.94l-0.77 8.15z"/>
   <path class="fil2 str0" d="M2761.57 14147.18c-6.6,21.96 -15.14,25.76 -22.39,40.95 3.42,-1.06 2.48,-1.75 6.65,-1.35 7.85,0.75 3.13,-2.07 4.63,3.39l3.07 -2.72c0.24,-0.24 0.65,-0.65 0.9,-0.92 8.57,-9.26 18.62,-27.64 17.9,-39.93l-1.17 -14.59 -7.27 0.01c0.29,2.26 0.86,4.44 0.62,6.74 -0.12,1.12 0.35,3.49 -2.94,8.42z"/>
   <path class="fil2 str0" d="M3355.16 15925.82l2.33 14 12.26 0c-0.68,-14.44 -3.81,-40.44 1.57,-52.37l-13.74 -2.99 -2.42 41.36z"/>
   <path class="fil2 str0" d="M3263.23 15687.63c-1.53,10.35 3.97,39.62 12.27,45.78 0.11,-5.44 -2.01,-3.05 2.85,-4.05 6.03,-1.24 4.51,0.48 8,2.77 -4.77,-16.44 -9.64,-21.62 -12.04,-43.01 -3.15,-5.6 -2.98,-8.53 -3.01,-15.17l-7.37 0 -0.7 13.68z"/>
   <path class="fil2 str0" d="M3356.63 13961.57c5.07,1.53 8.2,1.4 13.23,-2.71 -4.51,-3.25 -5.3,-10.93 -7,-17.76 -1.43,-5.73 -4.33,-13 -5.81,-19.31 -4.72,-4.53 -3.89,-7.88 -7.47,-11.75 -5.89,-1.52 -6.88,-2.52 -11.34,0.48 0.97,5.68 6.89,16.15 9.73,23.56 3.8,9.91 6.66,16.64 8.66,27.49z"/>
   <path class="fil2 str0" d="M2991.64 15798.52c-3.43,9.63 -4.67,28.3 -3.37,39.38 0.67,5.74 0.37,7.76 3.8,12.21 0.91,-1.02 0.71,-5.07 8.53,-0.82l2.72 2.17c-1.84,-9.83 -3.74,-16.26 -3.53,-27.22 0.18,-9.8 2.78,-17.56 2.72,-26.51l-0.77 -3.69c-2.19,0.01 -3.83,-0.33 -5.73,0.48l-3.27 2.73c-0.23,-0.38 -0.71,0.87 -1.1,1.27z"/>
   <path class="fil2 str0" d="M3825.6 15680.81c-0.15,15.71 -4,25.01 -6.82,38.85l8.66 -1.48 1 5.2c3.44,-3.35 3.21,-3.77 4.7,-9.49 1.09,-4.17 1.92,-8.48 2.63,-12.65 1.54,-9.18 1.78,-17.8 2.17,-27.29l-8.76 0c-0.24,0.38 -0.49,0.93 -0.62,1.18l-2.96 5.68z"/>
   <polygon class="fil2 str0" points="3815.3,14244.41 3815.72,14248.83 3825.04,14252.22 3834.48,14214.27 3833.5,14209.36 3832.6,14205.69 3823.25,14205.51 "/>
   <path class="fil2 str0" d="M4074.32 14102.99c2.99,3.88 4.65,5.77 10.66,6.57 3.97,-13.1 13.5,-24.3 14.84,-39.03 -3.78,-2.24 -4.91,-1.33 -10.24,-1.5l-15.26 33.96z"/>
   <path class="fil2 str0" d="M3367.32 15979.5c-2.62,-9.28 -0.98,-1.42 1.22,-4.74l9.4 0.71c-4.11,-13.29 -7.39,-20.89 -8.19,-35.65l-12.26 0c1,8.04 1.74,14.31 3.38,21.9 0.72,3.33 1.27,6.19 2.25,9.57 1.53,5.26 0.98,4.73 4.2,8.21z"/>
   <path class="fil2 str0" d="M3542.73 16072.19l1.14 20.71 8.93 0.02c4.9,-3.5 2.93,-2.93 3.65,-10.89 0.47,-5.26 1.18,-8.47 2.11,-13.83l-14.91 -0.61 -0.92 4.6z"/>
   <polygon class="fil2 str0" points="3730.54,13948.56 3731.83,13960.14 3741.31,13961.72 3743.12,13934.41 3733.64,13934.41 "/>
   <path class="fil2 str0" d="M4099.06 15837.23l-4.16 16.29 8.93 -1.32c1.81,2.37 1.08,0.88 1.9,5.16 2.04,-3.01 2.66,-4.18 3.85,-8.84 1.12,-4.38 1.16,-6.14 1.14,-10.76l-1.74 -6.66c-10.2,0 -6.44,-1.9 -9.92,6.13z"/>
  </g>
  <path class="fil3 str0" d="M6521.7 14950.72l0 383.97 -268.67 0 0 -389.56 -547.55 -740.98 312.85 0 371.1 530.32 371.1 -530.32 312.85 0 -551.68 746.57zm701.21 233.24l98.03 -230.33 315.78 0 -220.38 -469.38 -393.92 850.44 -283 0 536.15 -1086.61 270.12 -72.31 556.04 1158.92 -284.44 0 -71.12 -150.73 -523.26 0zm1820.29 -979.81l268.92 0c0,0 0,376.69 0,1130.54l-268.92 0 -591.48 -745.11 0 745.11 -268.92 0 0 -1086.61 268.92 -72.31 591.48 745.11 0 -716.73zm396.85 240.29l0 -240.29 1181.74 0 -72.32 240.29 -422.57 0 0 890.25 -270.14 0 0 -890.25 -416.71 0zm1304.05 166.49l268.94 -72.58 0 199.03c0,0 160.66,0 482,0 53.17,0 90.05,-26.44 110.92,-79.61 8.5,-21.84 12.86,-44.65 12.86,-68.19 0,-58.02 -19.41,-100.01 -58.23,-126.69 -19.91,-12.38 -41.75,-18.45 -65.55,-18.45l-750.94 0 72.58 -240.29 681.29 0c139.3,0 247.32,50.72 324.24,152.19 53.89,72.08 81.08,153.87 81.08,245.86 0,109.94 -37.14,200.73 -110.92,271.82 -38.82,36.9 -84.46,63.84 -136.65,80.83l280.08 379.84 -316.98 0 -246.09 -357.02 -359.69 0 0 357.02 -268.94 0 0 -723.76zm1658.2 573.03l98.03 -230.33 315.78 0 -220.38 -469.38 -393.92 850.44 -283 0 536.15 -1086.61 270.12 -72.31 556.04 1158.92 -284.44 0 -71.11 -150.73 -523.27 0zm959.89 -979.81l268.92 0 0 890.25 794.87 0 -72.55 240.29c0,0 -330.34,0 -991.24,0 0,0 0,-376.94 0,-1130.54zm1380.77 566c0,162.12 59.45,266.01 177.88,311.38 55.83,21.86 126.95,32.78 213.35,32.78 201.93,0 323.76,-69.17 365.51,-207.76 11.18,-40.76 16.99,-86.16 16.99,-136.4 0,-184.94 -79.59,-295.38 -239.05,-331.3 -42.49,-9.45 -90.55,-14.32 -143.45,-14.32 -183,0 -301.19,52.18 -354.12,156.55 -24.73,50.25 -37.11,113.11 -37.11,189.07zm1058.19 0c0,221.84 -85.92,383.96 -257.52,486.39 -114.54,68.19 -255.81,102.43 -423.76,102.43 -205.82,0 -368.66,-55.11 -489.06,-165.05 -114.78,-105.33 -172.32,-246.6 -172.32,-423.77 0,-209.46 77.91,-367.46 233.24,-473.53 115.77,-77.91 258.48,-116.73 428.14,-116.73 223.78,0 396.82,58.24 519.16,174.99 107.99,103.38 162.12,241.73 162.12,415.27zm1252.86 -12.86l0 577.4c0,0 -242,0 -725.46,0 -163.11,0 -288.59,-65.53 -376.7,-196.36 -67.46,-101.45 -101.2,-220.86 -101.2,-358.22 0,-153.65 40.53,-284.95 121.12,-393.92 90.05,-120.38 208.96,-181.06 356.78,-182.04l652.88 0 72.58 240.29 -692.69 0c-88.1,0 -152.67,47.32 -193.45,142.23 -21.84,52.17 -32.76,110.9 -32.76,176.45 0,108.98 27.19,195.62 81.05,260.18 39.81,46.36 88.35,70.14 145.16,71.1l423.75 0 0 -263.09 268.94 -74.02zm207.49 -553.14l268.92 0 0 1130.54 -268.92 0 0 -1130.54zm881.75 0l725.46 0 -72.58 240.29 -620.1 0c-81.56,0 -143.7,45.61 -186.41,136.64 -26.46,58.74 -39.8,124.03 -39.8,196.1 0,111.91 28.62,197.83 85.41,257.52 38.85,39.8 85.68,59.7 140.8,59.7l692.68 0 -72.58 240.29 -652.88 0c-154.37,0 -276.21,-64.57 -365.51,-193.44 -74.76,-107.03 -112.39,-234.22 -112.39,-381.06 0,-155.57 41.27,-285.42 123.78,-389.79 88.35,-109.94 206.3,-165.27 354.12,-166.25z"/>
 </g>
</svg>
